<svg width="189" height="189" viewBox="0 0 189 189" fill="none" xmlns="http://www.w3.org/2000/svg">
<mask id="mask0_47_3416" style="mask-type:luminance" maskUnits="userSpaceOnUse" x="0" y="0" width="189" height="189">
<path d="M0 3.05176e-05H188.976V188.976H0V3.05176e-05Z" fill="white"/>
</mask>
<g mask="url(#mask0_47_3416)">
<path d="M182.216 110.521C181.405 109.818 180.468 109.773 179.936 109.104C180.748 104.332 181.177 99.4303 181.177 94.4263C181.177 92.405 181.103 90.3996 180.967 88.4116C181.105 88.1983 181.044 87.7476 180.872 87.165C180.395 81.397 179.356 75.7863 177.805 70.393C179.381 69.7596 181.903 69.1116 181.775 68.073C181.439 65.3356 180.243 61.069 178.439 58.8596C172.545 61.4343 176.325 56.8063 175.192 53.3783C174.753 52.0503 172.915 49.0543 171.216 49.049C170.453 49.0476 169.92 49.8436 169.312 50.5916C168.236 48.7516 167.093 46.9583 165.888 45.209C165.153 43.425 164.236 41.741 162.957 40.3356C162.865 40.157 162.781 39.969 162.712 39.761C162.061 37.805 163.203 38.141 163.404 36.5703C163.671 34.465 158.345 31.141 156.751 29.0676C156.311 29.609 156.013 30.2063 155.644 30.7476C154.844 29.781 153.909 28.9516 152.707 28.3716C153.196 27.3636 153.748 26.4836 153.233 25.457C152.34 23.677 148.105 21.669 146.496 20.829C145.677 21.8823 145.523 23.3743 143.992 23.0943C143.932 23.0823 143.879 23.0703 143.825 23.057C143.504 22.8343 143.185 22.609 142.861 22.3916C142.617 21.5623 143.868 20.2556 143.693 19.2703C143.471 18.0156 140.443 16.2103 139.088 16.1316C137.479 16.0396 136.991 17.1676 135.983 18.1996C135.544 17.9596 135.1 17.725 134.657 17.4916C133.035 16.2676 133.368 15.3676 133.779 12.8396C132.359 11.4823 127.487 8.8943 125.92 10.1223C125.501 10.4503 124.864 12.1436 124.263 12.8717C123.919 12.745 123.572 12.6263 123.227 12.505C123.156 12.2863 123.091 12.0143 123.029 11.673C122.784 10.2757 124.081 10.133 122.883 8.82364C122.075 7.93964 119.68 7.63698 118.617 7.39565C116.357 6.88231 116.489 6.99297 115.241 8.34097C114.708 8.9183 114.511 9.53566 114.023 9.81699C113.539 9.70499 113.051 9.60098 112.565 9.49698C111.516 6.71831 113.701 5.26497 109.275 4.5623C107.341 4.25298 106.409 4.02231 105.259 5.53964C104.537 6.49031 104.639 7.53964 103.757 8.08231C103.376 8.04231 102.993 8.00365 102.609 7.96632C103.025 6.45566 103.315 4.85298 103.603 3.37698C100.617 2.59164 96.9548 3.15433 94.1068 3.84633C94.3281 4.61432 94.6175 5.38098 94.8455 6.14098C93.4388 6.89297 90.6735 5.04498 89.0428 4.81699C86.3108 4.43565 81.8801 4.49165 79.2801 5.66365C80.2495 12.0223 76.7508 7.17697 73.1468 7.38765C71.7508 7.46898 68.3828 8.47165 67.9388 10.113C67.8135 10.5823 68.0255 11.0463 68.3428 11.5237C67.7468 11.7103 67.1548 11.9023 66.5641 12.1023C65.1255 12.1316 63.6228 12.1223 63.0388 12.1357C60.9788 12.1823 61.6348 11.189 60.1921 10.5357C58.2601 9.661 53.5175 13.773 51.0641 14.6863C51.5908 15.4716 52.2908 16.0356 52.7441 16.8116C52.0241 17.8543 50.7135 18.0556 49.6548 18.7396C48.6135 17.8863 47.9095 16.7623 46.5788 16.985C44.6148 17.3143 41.4495 20.7703 40.1735 22.0623C40.8201 22.985 41.9015 23.549 41.7895 24.5343C41.4415 25.0276 41.1055 25.509 40.7601 25.9743C39.8428 26.1877 38.9148 24.4116 37.8601 24.281C36.5948 24.125 33.9775 26.4876 33.5041 27.7596C32.9815 29.165 33.7535 29.953 34.4201 31.077C33.3135 31.781 32.2535 32.529 31.8521 33.0503C31.0375 33.053 30.2068 32.5636 28.7948 31.865C27.0801 32.8223 23.1735 36.7156 23.8841 38.5756C24.0668 39.049 25.3748 40.077 25.9468 40.8556C25.6881 41.185 25.4375 41.5183 25.1841 41.8503C24.9935 41.8436 24.7721 41.8263 24.5161 41.7943C23.1081 41.6183 23.3548 40.3356 21.7495 41.0956C20.6681 41.6076 19.6735 43.8063 19.1295 44.753C17.9748 46.761 18.1188 46.6676 19.0401 48.257C19.3481 48.7903 19.7428 49.1316 19.9588 49.5196C19.6295 50.065 19.3028 50.613 18.9855 51.165C16.3268 51.1343 15.5615 48.9983 13.6721 52.8463C12.8095 54.6036 12.3135 55.4276 13.4255 56.973C13.9761 57.741 14.7401 58.033 15.1628 58.6183C14.7668 59.4943 14.3881 60.381 14.0201 61.2703C13.1455 60.7303 12.2535 60.217 11.4135 59.7263C9.68545 62.281 9.00279 65.925 8.71212 68.8396C9.50945 68.885 10.3281 68.8676 11.1215 68.9036C11.3641 70.4796 8.70412 72.477 7.95079 73.9396C6.68545 76.3916 5.2708 80.5903 5.51614 83.4316C6.84547 83.6823 7.63612 83.957 8.05479 84.2636C7.98946 84.837 7.92546 85.4103 7.87079 85.9863C7.04546 86.9583 5.57213 88.1836 5.1108 89.7903C4.72547 91.1343 4.55479 94.645 5.95746 95.6063C6.37079 95.8903 6.90014 95.8303 7.47614 95.6796C7.51347 98.2716 7.65745 100.838 7.91612 103.372C7.81212 104.132 7.75346 104.893 7.75346 105.654C7.10813 106.042 6.19879 105.982 5.72412 106.637C4.82679 107.876 4.54679 115.168 6.04012 117.661C6.99346 119.253 10.7881 118.342 11.5468 118.425C11.5815 119.714 10.6548 116.226 11.1748 117.432C10.5655 118.278 12.8068 125.696 11.9188 125.252C11.1748 124.88 9.31212 124.508 9.43612 128.72C9.47612 130.117 10.3081 133.668 14.0415 132.306C14.1108 133.004 15.4028 134.678 14.8681 135.026C12.9268 136.288 14.0921 137.645 15.2255 139.768C16.1241 141.449 20.1095 144.149 21.7988 142.238C21.8281 142.284 21.8575 142.328 21.8868 142.373C21.2775 144.549 20.6001 147.198 22.0468 148.802C23.5161 150.43 27.1841 153.632 29.4841 152.97C29.5655 156.008 28.0935 157.644 30.8535 160.012C31.9495 160.95 33.4748 161.317 34.4495 162.369C35.0495 163.016 36.1721 160.396 37.0815 159.756C37.3535 159.993 37.6255 160.229 37.8988 160.464C37.3055 161.056 36.9041 161.753 37.0388 162.64C37.1748 163.521 38.7001 166.018 39.2948 166.709C41.7068 169.504 43.3788 166.628 45.9881 166.606C46.0735 166.662 46.1588 166.718 46.2441 166.774C46.6201 168.041 45.9895 169.592 46.7721 170.71C47.9455 172.389 51.1148 172.557 53.2828 172.781C53.2095 173.162 53.0828 173.57 53.2921 174.254C53.9095 176.285 60.1295 177.136 62.4335 178.376C62.6775 177.462 62.6388 176.564 62.9228 175.712C63.2121 175.678 63.4895 175.698 63.7588 175.752C64.2308 175.929 64.7041 176.102 65.1788 176.272C65.5775 176.453 65.9815 176.638 66.4108 176.761C66.4561 178.106 66.0761 179.378 67.1201 180.229C68.6641 181.488 73.3508 181.586 75.1628 181.693C75.3761 180.817 75.2308 179.882 75.5815 179.254C76.4175 179.438 77.2561 179.609 78.1001 179.769C78.1201 180.52 77.9908 181.429 78.3561 181.966C79.0735 183.021 82.5761 183.429 83.8441 182.945C84.9441 182.525 85.2308 181.757 85.4988 180.844C86.7281 180.968 87.9655 181.061 89.2095 181.133C89.5348 181.736 89.7161 182.576 90.0361 183.774C91.8855 184.433 97.3908 184.798 98.3188 183.037C98.4695 182.748 98.4868 181.961 98.5348 181.184C99.2241 181.15 99.9121 181.108 100.599 181.06C100.785 181.866 100.301 182.409 101.621 182.978C102.719 183.453 105.028 182.749 106.099 182.533C108.368 182.077 108.204 182.03 108.791 180.289C108.815 180.214 108.836 180.141 108.856 180.069C109.825 179.906 110.791 179.732 111.748 179.537C112.515 181.07 112.429 182.201 115.781 181.294C117.671 180.784 118.617 180.612 119.045 178.757C119.132 178.377 119.135 178.022 119.119 177.689C119.647 177.532 120.173 177.372 120.697 177.204C120.912 178.361 121.249 179.649 121.993 179.936C122.887 180.282 126.236 178.65 127.107 178.253C129.869 176.993 127.939 176.244 126.735 175.03C127.808 174.6 128.872 174.15 129.923 173.677C130.655 175.461 131.069 176.364 133.74 175.924C136.449 175.476 139.521 173.912 138.1 170.917C137.952 170.606 137.653 170.258 137.357 169.889C138.028 169.506 138.693 169.116 139.353 168.716C139.505 169.426 139.62 170.181 140.243 170.526C141.012 170.952 142.784 170.392 143.475 169.944C144.811 169.08 145.088 167.268 144.86 165.52C146.255 165.325 146.071 166.253 147.467 166.524C149.551 166.926 153.213 161.829 155.388 160.373C154.693 159.73 153.883 159.344 153.263 158.694C153.72 157.513 154.949 157.013 155.821 156.102C157.032 156.692 157.976 157.624 159.22 157.098C161.053 156.324 163.333 152.228 164.276 150.676C163.445 149.94 162.287 149.64 162.137 148.693C162.589 148.129 163.033 147.56 163.471 146.985C164.252 147.214 165.207 148.072 166.013 147.982C167.28 147.841 169.279 144.937 169.445 143.59C169.621 142.144 168.745 141.548 167.863 140.653C168.361 139.862 168.847 139.064 169.32 138.256C170.244 137.744 171.204 138.076 173.077 138.506C174.523 137.18 177.421 132.485 176.3 130.841C176.031 130.449 174.696 129.816 173.92 129.224C174.109 128.79 174.299 128.357 174.481 127.92C174.62 127.896 174.769 127.874 174.94 127.856C176.351 127.701 176.408 129.006 177.795 127.894C178.727 127.146 179.185 124.777 179.495 123.73C180.156 121.51 180.036 121.633 178.771 120.301C178.339 119.845 177.867 119.602 177.568 119.265C177.744 118.672 177.915 118.074 178.08 117.476C180.723 116.838 181.975 118.813 182.932 114.593C183.364 112.684 183.655 111.768 182.216 110.521Z" fill="black"/>
<path d="M7.33203 94.5294C7.33203 46.5574 46.2174 7.67068 94.1907 7.67068C142.161 7.67068 181.049 46.5574 181.049 94.5294C181.049 142.501 142.161 181.389 94.1907 181.389C46.2174 181.389 7.33203 142.501 7.33203 94.5294Z" fill="black"/>
</g>
<path d="M44.6653 94.5294C44.6653 121.881 66.8386 144.055 94.1906 144.055C121.543 144.055 143.716 121.881 143.716 94.5294C143.716 67.1787 121.543 45.0027 94.1906 45.0027C66.8386 45.0027 44.6653 67.1787 44.6653 94.5294Z" fill="url(#paint0_linear_47_3416)"/>
<mask id="mask1_47_3416" style="mask-type:luminance" maskUnits="userSpaceOnUse" x="0" y="0" width="189" height="189">
<path d="M0 3.05176e-05H188.976V188.976H0V3.05176e-05Z" fill="white"/>
</mask>
<g mask="url(#mask1_47_3416)">
<mask id="mask2_47_3416" style="mask-type:luminance" maskUnits="userSpaceOnUse" x="42" y="42" width="104" height="105">
<path d="M42.4519 42.7893H145.928V146.267H42.4519V42.7893Z" fill="white"/>
</mask>
<g mask="url(#mask2_47_3416)">
<g opacity="0.199997">
<path d="M42.4519 94.5293C42.4519 65.9519 65.6172 42.7893 94.1906 42.7893C122.765 42.7893 145.928 65.9519 145.928 94.5293C145.928 123.104 122.765 146.267 94.1906 146.267C65.6172 146.267 42.4519 123.104 42.4519 94.5293Z" fill="#CDCDCD"/>
</g>
</g>
<path d="M54.5685 94.5293C54.5685 72.6466 72.3085 54.9066 94.1911 54.9066C116.074 54.9066 133.811 72.6466 133.811 94.5293C133.811 116.413 116.074 134.149 94.1911 134.149C72.3085 134.149 54.5685 116.413 54.5685 94.5293Z" fill="white"/>
<mask id="mask3_47_3416" style="mask-type:luminance" maskUnits="userSpaceOnUse" x="12" y="12" width="164" height="164">
<path d="M12.8842 12.9947H175.751V175.864H12.8842V12.9947Z" fill="white"/>
</mask>
<g mask="url(#mask3_47_3416)">
<g opacity="0.199997">
<path d="M12.8842 94.4265C12.8842 49.4545 49.3428 12.9945 94.3202 12.9945C139.292 12.9945 175.751 49.4545 175.751 94.4265C175.751 139.405 139.292 175.864 94.3202 175.864C49.3428 175.864 12.8842 139.405 12.8842 94.4265Z" fill="#848484"/>
</g>
</g>
<path d="M42.6244 94.4272C42.6244 65.8326 65.8044 42.6512 94.4031 42.6512C122.998 42.6512 146.179 65.8326 146.179 94.4272C146.179 123.027 122.998 146.207 94.4031 146.207C65.8044 146.207 42.6244 123.027 42.6244 94.4272Z" fill="#AF9D7A"/>
<path d="M42.6244 94.4272C42.6244 65.8325 65.8044 42.6512 94.4031 42.6512C122.998 42.6512 146.179 65.8325 146.179 94.4272C146.179 123.027 122.998 146.207 94.4031 146.207C65.8044 146.207 42.6244 123.027 42.6244 94.4272Z" stroke="white" stroke-width="2.13067" stroke-miterlimit="10" stroke-linecap="round" stroke-linejoin="round"/>
<path d="M20.3028 79.5222L27.0748 80.6222L26.1441 86.3329L19.3721 85.2329L18.8094 88.6916L36.3641 91.5436L36.9281 88.0849L29.6081 86.8956L30.5388 81.1849L37.8574 82.3742L38.4214 78.9142L20.8668 76.0636L20.3028 79.5222Z" fill="white"/>
<path d="M37.0332 62.1271L27.9105 58.0844L26.4905 61.2897L35.8292 65.4257C38.7265 66.7097 39.6652 68.2351 38.9172 69.9217C38.1985 71.5444 36.3532 71.8617 33.5305 70.6137L24.1918 66.4764L22.7705 69.6804L31.8438 73.6991C37.0078 75.9884 40.2265 74.9151 41.8145 71.3311C43.4598 67.6204 42.0532 64.3484 37.0332 62.1271Z" fill="white"/>
<path d="M37.3925 44.8159L41.4339 48.0385C43.5365 49.7185 45.4565 51.1599 47.4205 52.4625L47.3925 52.4985C45.3792 51.8065 43.0872 51.1279 41.0472 50.6812L33.9432 49.1425L31.3859 52.3505L45.2819 63.4372L47.2952 60.9119L43.1085 57.5732C40.8405 55.7639 38.8539 54.2385 36.9259 52.8479L36.9832 52.7759C39.0725 53.4985 41.4912 54.1012 43.5725 54.5812L51.0019 56.2625L53.3019 53.3785L39.4045 42.2932L37.3925 44.8159Z" fill="white"/>
<path d="M56.8458 46.7195C56.5125 46.9662 56.1058 47.2675 55.8178 47.3822L48.8885 38.0382C49.0831 37.7968 49.4618 37.4182 50.0725 36.9648C52.5178 35.1528 55.1205 35.4915 57.3978 38.5622C59.9285 41.9728 59.4365 44.8328 56.8458 46.7195ZM54.1685 32.3862C52.2125 32.2288 50.3271 32.9355 47.9391 34.7048C46.5311 35.7475 45.2578 36.8555 44.3765 37.8355L54.7631 51.8408C55.5258 51.4395 56.6605 50.7635 58.1231 49.6795C60.5685 47.8675 62.1471 45.7795 62.5351 43.5542C62.8551 41.5115 62.3271 38.9808 60.3018 36.2475C58.4165 33.7048 56.2818 32.5288 54.1685 32.3862Z" fill="white"/>
<path d="M64.3119 28.116L70.2532 41.9694L72.9826 40.8L67.0426 26.9454L64.3119 28.116Z" fill="white"/>
<path d="M80.6868 22.8875L80.4628 28.0768C80.4082 29.8315 80.4135 31.8501 80.4642 33.6275L80.3868 33.6461C79.7042 31.9915 78.9002 30.2501 78.0935 28.6701L75.6975 24.0368L71.8322 24.9288L74.4095 39.7955L77.0948 39.1768L76.0522 33.5448C75.7055 31.6981 75.2575 29.4155 74.8562 27.4195L74.8935 27.4115C75.6655 29.2741 76.5642 31.2475 77.3855 32.8928L80.0668 38.2395L82.3322 37.7168L82.5682 31.6288C82.6642 29.7941 82.7148 27.5808 82.7002 25.6101L82.7388 25.6035C83.2375 27.7581 83.7828 29.8568 84.2482 31.6088L85.7575 37.1781L88.5762 36.5301L84.4935 22.0088L80.6868 22.8875Z" fill="white"/>
<path d="M98.0983 29.1779L99.3636 25.4979C99.6809 24.4925 100.049 23.1739 100.346 22.1392L100.414 22.1445C100.557 23.1899 100.717 24.5552 100.88 25.6285L101.52 29.4712L98.0983 29.1779ZM98.4903 18.9592L92.2356 36.2739L95.8649 36.5859L97.3356 32.1312L101.792 32.5139L102.596 37.1645L106.362 37.4912L103.062 19.3539L98.4903 18.9592Z" fill="white"/>
<path d="M121.169 23.7339L117.918 33.4099C116.91 36.4112 115.478 37.4885 113.73 36.9005C112.047 36.3352 111.559 34.5299 112.543 31.6032L115.793 21.9272L112.473 20.8112L109.313 30.2112C107.515 35.5619 108.881 38.6659 112.595 39.9152C116.442 41.2072 119.567 39.5032 121.314 34.3032L124.49 24.8512L121.169 23.7339Z" fill="white"/>
<path d="M137.49 36.2129L139.265 33.3396L129.106 27.0623L127.332 29.9356L130.901 32.1409L123.33 44.3969L126.31 46.2383L133.882 33.9836L137.49 36.2129Z" fill="white"/>
<path d="M144.055 49.6713C141.607 52.1486 138.841 53.0126 137.151 51.3446L137.137 51.3286C135.463 49.674 136.299 46.8273 138.654 44.4433C140.991 42.0766 143.85 41.118 145.571 42.8206C147.294 44.5233 146.299 47.3993 144.055 49.6713ZM147.882 40.614C144.637 37.4046 139.702 38.1313 135.957 41.9233C132.397 45.5286 131.53 50.278 134.794 53.502L134.809 53.518C138.039 56.7113 142.687 56.3713 146.805 52.202C150.254 48.7126 151.275 43.97 147.882 40.614Z" fill="white"/>
<path d="M141.505 59.2579C141.035 59.5979 140.961 60.0872 141.308 60.5659C141.488 60.8166 141.736 61.1046 142.044 61.1046C142.152 61.1046 142.257 61.0686 142.356 60.9979C142.831 60.6526 142.913 60.0406 142.552 59.5406C142.36 59.2752 141.752 59.0792 141.505 59.2579Z" fill="white"/>
<path d="M147.604 67.0183C147.74 67.0103 147.832 67.0143 147.909 67.0169C147.948 67.0183 147.983 67.0196 148.016 67.0196C148.128 67.0196 148.237 67.0036 148.411 66.9143C148.556 66.8303 148.647 66.6956 148.665 66.5356C148.684 66.3929 148.645 66.2369 148.556 66.0849L148.525 66.0329C148.272 65.5983 147.913 65.5476 147.665 65.5476C147.547 65.5476 147.423 65.5609 147.296 65.5743C146.905 65.6156 146.485 65.7316 146.116 65.0996L146.069 65.0169C145.66 64.2529 145.7 63.4556 146.187 62.6449C147.425 60.5783 151.188 58.9769 153.6 58.9769C154.223 58.9769 155.029 59.0889 155.339 59.6183C155.348 59.6343 155.353 59.6503 155.359 59.6676L155.376 59.7156C155.504 60.0089 155.451 60.2489 155.393 60.5049C155.332 60.7756 155.263 61.0836 155.453 61.4329C155.577 61.6436 155.744 61.6876 155.861 61.6876C155.963 61.6876 156.069 61.6556 156.179 61.5929C156.969 61.1289 156.875 60.0703 156.427 59.2183L156.355 59.0956C155.731 58.0249 154.672 57.4836 153.211 57.4836C151.799 57.4836 150.305 57.9996 149.388 58.4783C148.517 58.8609 145.615 60.2823 144.832 62.5329C144.496 63.4983 144.595 64.4916 145.125 65.4916L145.215 65.6476C145.755 66.5716 146.497 67.0196 147.487 67.0196L147.604 67.0183Z" fill="white"/>
<path d="M161.163 67.506C161.039 67.218 160.715 67.1473 160.304 67.3273C159.387 67.7233 158.499 68.146 157.56 68.5927C156.568 69.0647 155.543 69.554 154.42 70.038L153.916 70.2567C153.814 69.9633 153.652 69.5687 153.483 69.154C153.28 68.658 153.072 68.1473 152.95 67.7793L159.595 64.894C159.935 64.75 159.624 63.93 159.62 63.9207C159.498 63.6393 159.31 63.4967 159.06 63.4967C158.898 63.4967 158.734 63.558 158.591 63.618L147.359 68.726C147.091 68.902 147.074 69.278 147.194 69.5593C147.226 69.6327 147.458 70.0313 147.724 70.0313L147.798 70.0233L151.815 68.2927C152.25 69.0633 152.566 69.8673 152.756 70.6833C151.458 71.4167 149.988 72.026 148.987 72.4233L148.934 72.458C148.863 72.526 148.564 72.9247 148.642 73.1873L148.682 73.278C148.822 73.606 149.118 73.826 149.419 73.826C149.503 73.826 149.583 73.81 149.662 73.7753L160.99 68.6073C161.346 68.4007 161.33 67.8913 161.163 67.506Z" fill="white"/>
</g>
<mask id="mask4_47_3416" style="mask-type:luminance" maskUnits="userSpaceOnUse" x="42" y="42" width="129" height="105">
<path d="M42.624 94.4267C42.624 123.028 65.804 146.207 94.4027 146.207C122.997 146.207 170.033 121.264 170.033 92.6653C170.033 64.0707 122.997 42.652 94.4027 42.652C65.804 42.652 42.624 65.8333 42.624 94.4267Z" fill="white"/>
</mask>
<g mask="url(#mask4_47_3416)">
<path d="M78.6583 96.5593C78.6583 96.5593 54.8783 124.663 51.0969 150.166C47.3156 175.67 79.5036 162.021 79.5036 162.021L101.201 114.154L78.6583 96.5593Z" fill="black"/>
<path d="M78.3862 103.641C78.3862 103.641 58.4502 125.678 55.1235 148.601C51.7955 171.525 75.7008 157.771 75.7008 157.771L98.9648 115.273L78.3862 103.641Z" fill="white"/>
</g>
<mask id="mask5_47_3416" style="mask-type:luminance" maskUnits="userSpaceOnUse" x="0" y="0" width="189" height="189">
<path d="M0 3.05176e-05H188.976V188.976H0V3.05176e-05Z" fill="white"/>
</mask>
<g mask="url(#mask5_47_3416)">
<path d="M137.748 135.063C137.751 135.062 137.753 135.059 137.756 135.059C137.811 135.024 137.829 134.952 137.797 134.895C137.772 134.847 137.756 134.758 137.744 134.691L137.74 134.668C137.687 134.304 137.599 134.092 137.448 133.748C137.421 133.684 137.348 133.656 137.287 133.683C137.221 133.711 137.193 133.783 137.221 133.847C137.367 134.18 137.445 134.371 137.495 134.707L137.499 134.735C137.515 134.822 137.533 134.93 137.58 135.012C137.613 135.074 137.688 135.095 137.748 135.063Z" fill="white"/>
<path d="M138.702 134.245C138.706 134.274 138.666 134.317 138.655 134.329C138.606 134.356 138.4 134.342 138.346 134.317C138.262 134.276 138.266 134.188 138.326 133.968C138.486 134.052 138.69 134.165 138.702 134.245ZM137.93 133.385C137.93 133.374 137.931 133.354 137.955 133.32C137.963 133.32 137.972 133.317 137.98 133.316C138.168 133.246 138.226 133.261 138.228 133.26C138.25 133.305 138.198 133.489 138.166 133.601C138.04 133.528 137.934 133.45 137.93 133.385ZM138.615 133.729C138.683 133.492 138.642 133.237 138.506 133.11C138.442 133.052 138.303 133.021 138.208 133.029C138.207 133.026 138.199 133.046 138.196 133.042C138.159 132.988 138.09 132.998 138.034 133.033C138.032 133.034 138.026 133.033 138.024 133.033C137.814 133.169 137.698 133.282 137.704 133.432C137.716 133.624 137.892 133.744 138.111 133.865C138.108 133.874 138.099 133.878 138.096 133.89C138.04 134.094 137.954 134.401 138.239 134.542C138.339 134.593 138.65 134.628 138.792 134.537C138.803 134.53 138.812 134.521 138.822 134.514C138.922 134.417 139.068 134.344 139.054 134.238C139.023 134.026 138.584 133.841 138.6 133.782C138.606 133.764 138.61 133.746 138.615 133.729Z" fill="white"/>
<mask id="mask6_47_3416" style="mask-type:luminance" maskUnits="userSpaceOnUse" x="92" y="146" width="31" height="14">
<path d="M92.207 146.369H122.508V159.881H92.207V146.369Z" fill="white"/>
</mask>
<g mask="url(#mask6_47_3416)">
<g opacity="0.350006">
<path d="M93.2936 149.656C93.2936 149.656 89.0216 157.192 97.4189 158.885C122.452 163.934 122.508 148.198 122.508 146.805C122.508 145.412 113.736 147.796 113.736 147.796L93.2936 149.656Z" fill="black"/>
</g>
</g>
<path d="M130.709 131.344C121.364 140.537 108.545 146.207 94.4035 146.207C65.8049 146.207 42.6249 123.028 42.6249 94.4279" stroke="white" stroke-width="2.13067" stroke-miterlimit="10" stroke-linecap="round" stroke-linejoin="round"/>
<mask id="mask7_47_3416" style="mask-type:luminance" maskUnits="userSpaceOnUse" x="33" y="115" width="26" height="27">
<path d="M33.8977 115.215H58.7468V141.782H33.8977V115.215Z" fill="white"/>
</mask>
<g mask="url(#mask7_47_3416)">
<g opacity="0.339996">
<path d="M33.8977 116.09C33.8977 116.09 34.375 127.754 39.475 133.522C46.439 141.401 53.9217 141.434 53.9217 141.434C53.9217 141.434 58.0404 143.071 58.7297 139.237C59.4204 135.405 39.035 110.251 33.8977 116.09Z" fill="black"/>
</g>
</g>
<path d="M106.163 132.947C106.163 132.947 99.2121 134.047 94.2428 137.492C92.5881 138.635 90.9935 140.015 90.1961 141.88C88.0468 146.919 88.2361 154.313 98.5881 155.467C106.885 156.395 120.224 153.124 121.971 147.791C123.749 142.399 122.277 132.648 106.163 132.947Z" fill="black"/>
<path d="M103.759 135.898C92.363 139.038 89.7897 146.158 93.0484 149.87C96.4844 153.792 100.076 152.762 105.915 152.429C111.766 152.105 120.399 150.102 120.14 144.664C119.875 139.138 114.436 132.954 103.759 135.898Z" fill="white"/>
<path d="M110.779 141.285C110.779 141.285 111.024 142.349 111.312 142.984C112.455 145.568 114.747 151.424 109.505 152.324C102.956 153.449 111.408 153.133 111.408 153.133C111.408 153.133 113.056 152.588 114.579 152.497C115.079 152.468 115.489 150.628 115.239 149.003C114.635 145.064 112.279 141.201 112.279 141.201C112.279 141.201 111.213 139.317 110.779 141.285Z" fill="black"/>
<path d="M100.551 147.621C100.755 144.61 101.186 142.435 100.654 142.467C100.117 142.495 98.9074 143.942 98.5741 146.035C98.2154 148.37 98.4381 150.087 98.9381 151.201C99.4421 152.297 99.1127 152.282 98.3727 152.323C97.6367 152.363 95.9141 152.394 95.9141 152.394C95.9141 152.394 97.5327 153.346 99.4674 153.565C101.863 153.837 104.69 153.386 104.79 153.267C104.981 153.061 102.913 152.566 102.887 152.574C102.869 152.578 100.181 153.187 100.551 147.621Z" fill="black"/>
<path d="M110.178 132.796C110.178 132.796 111.182 135.036 113.017 135.968C114.858 136.899 117.132 137.439 118.804 140.254C120.464 143.078 118.052 137.591 118.052 137.591C118.052 137.591 113.845 134.948 113.2 134.614C112.542 134.288 110.178 132.796 110.178 132.796Z" fill="black"/>
<path d="M98.4094 137.873C98.4094 137.873 99.7534 136.263 105.211 135.688C110.667 135.117 111.22 135.816 113.311 136.149C114.681 136.369 118.271 135.197 115.347 134.248C110.177 132.575 108.621 132.516 104.648 132.909C97.1601 133.651 92.0121 138.201 90.8254 140.631C89.6414 143.059 98.4094 137.873 98.4094 137.873Z" fill="black"/>
<path d="M59.4446 116.039C59.4446 116.039 63.4846 121.803 64.4593 127.769C64.7846 129.754 64.9033 131.861 64.1139 133.729C61.9833 138.777 56.5353 143.778 48.5113 137.135C42.0793 131.813 35.1646 119.946 37.7859 114.983C40.4286 109.959 48.4646 104.243 59.4446 116.039Z" fill="black"/>
<path d="M58.9916 119.818C64.653 130.198 61.3183 136.994 56.385 137.23C51.1783 137.485 49.4223 134.185 45.605 129.754C41.7743 125.321 37.2143 117.721 41.3076 114.126C45.465 110.48 53.689 110.093 58.9916 119.818Z" fill="white"/>
<path d="M50.2409 118.512C50.2409 118.512 49.3062 119.075 48.6489 119.311C45.9955 120.284 40.1915 122.704 43.1875 127.098C46.9289 132.591 41.2835 126.291 41.2835 126.291C41.2835 126.291 40.5315 124.727 39.5395 123.571C39.2115 123.191 40.2475 121.618 41.5929 120.668C44.8449 118.366 49.2609 117.376 49.2609 117.376C49.2609 117.376 51.3542 116.834 50.2409 118.512Z" fill="black"/>
<path d="M52.7917 130.272C54.8144 128.033 56.0797 126.21 56.4264 126.617C56.7797 127.024 56.5784 128.897 55.305 130.59C53.8757 132.469 52.4864 133.504 51.3384 133.917C50.1997 134.317 50.4384 134.544 50.9237 135.106C51.4064 135.662 52.5784 136.922 52.5784 136.922C52.5784 136.922 50.7704 136.42 49.2704 135.181C47.4077 133.646 45.769 131.3 45.785 131.146C45.7997 130.865 47.5944 132.009 47.6064 132.033C47.617 132.048 49.045 134.405 52.7917 130.272Z" fill="black"/>
<path d="M56.763 113.048C56.763 113.048 54.455 113.881 52.511 113.209C50.5643 112.53 48.5936 111.273 45.407 112.022C42.2243 112.792 47.8456 110.714 47.8456 110.714C47.8456 110.714 52.6683 111.905 53.3576 112.138C54.0483 112.384 56.763 113.048 56.763 113.048Z" fill="black"/>
<path d="M61.2897 125.037C61.2897 125.037 61.515 122.951 58.1364 118.628C54.755 114.308 53.8684 114.396 52.175 113.124C51.0644 112.288 49.4137 108.895 52.1257 110.34C56.923 112.895 58.047 113.973 60.5244 117.104C65.1937 123.003 65.499 129.867 64.5764 132.408C63.6537 134.947 61.2897 125.037 61.2897 125.037Z" fill="black"/>
<mask id="mask8_47_3416" style="mask-type:luminance" maskUnits="userSpaceOnUse" x="120" y="99" width="38" height="31">
<path d="M120.975 99.325H157.884V129.824H120.975V99.325Z" fill="white"/>
</mask>
<g mask="url(#mask8_47_3416)">
<path d="M156.482 123.828C160.372 117.134 155.892 107.564 146.474 102.454C137.058 97.3443 126.27 98.6269 122.378 105.32C118.487 112.014 122.968 121.583 132.386 126.695C141.804 131.806 152.591 130.522 156.482 123.828Z" fill="#C9C9C9"/>
<path d="M131.074 123.625C129.692 126.176 125.796 127.34 122.946 128.076C124.563 125.462 126.571 123.214 127.626 120.422" fill="#C9C9C9"/>
</g>
<path d="M155.503 119.367C158.547 112.261 153.019 103.079 143.157 98.8527C133.295 94.626 122.832 96.9607 119.788 104.063C116.744 111.167 122.272 120.353 132.136 124.579C141.999 128.805 152.46 126.47 155.503 119.367Z" fill="white"/>
<path d="M132.543 106.7C132.747 106.4 132.978 106.061 133.063 105.817C133.108 105.673 133.086 105.529 132.998 105.411C132.819 105.165 132.366 105.092 132.128 105.285L132.09 105.331C131.094 107.048 129.787 109.329 128.915 110.963L128.931 108.177C128.883 107.927 128.654 107.843 128.527 107.797C128.244 107.699 127.946 107.775 127.812 107.977C127.699 108.143 127.584 108.315 127.47 108.491C127.23 108.856 126.983 109.229 126.71 109.585L126.847 109.037C126.967 108.556 127.107 108.024 127.252 107.473C127.571 106.256 127.903 104.997 128.112 103.955C128.135 103.853 128.106 103.744 128.031 103.649C127.902 103.488 127.639 103.369 127.407 103.369C127.222 103.369 127.078 103.449 127.014 103.585C127.006 103.601 126.995 103.628 126.986 103.707C126.967 104.213 126.862 104.732 126.772 105.127C126.431 106.551 126.031 107.969 125.644 109.34C125.48 109.927 125.315 110.513 125.15 111.113L124.975 111.895L124.986 111.935C125.051 112.165 125.123 112.209 125.332 112.288C125.712 112.421 125.923 112.224 126.099 112.027L126.168 111.952C126.398 111.612 126.639 111.303 126.894 110.975C127.206 110.576 127.55 110.133 127.924 109.564L127.863 112.747C127.86 112.807 127.854 112.863 127.848 112.915C127.824 113.123 127.794 113.383 128.142 113.54L128.238 113.583C128.318 113.611 128.38 113.623 128.44 113.623C128.548 113.623 128.616 113.58 128.671 113.547C128.703 113.527 128.731 113.508 128.774 113.495L128.835 113.475L128.864 113.419C129.228 112.743 129.583 112.065 129.938 111.388C130.674 109.98 131.435 108.524 132.271 107.119C132.334 107.008 132.435 106.86 132.543 106.7Z" fill="black"/>
<path d="M135.99 107.853C136.317 108.746 135.612 110.754 135.241 111.533L135.221 111.574C134.11 113.904 133.334 114.252 132.972 114.252C132.885 114.252 132.798 114.233 132.717 114.196C132.465 114.081 132.298 113.905 132.209 113.657C131.961 112.98 132.269 111.728 133.124 109.936C133.258 109.652 133.393 109.368 133.562 109.044C133.785 108.576 134.713 107.433 135.426 107.433C135.514 107.433 135.598 107.45 135.676 107.485C135.821 107.55 135.924 107.672 135.99 107.853ZM137.118 107.856C136.993 107.382 136.725 107.025 136.306 106.785C135.958 106.628 135.613 106.548 135.281 106.548C133.753 106.548 132.798 108.142 132.136 109.53C131.214 111.464 130.944 112.888 131.306 113.881C131.494 114.396 131.854 114.777 132.378 115.013C132.609 115.118 132.849 115.172 133.09 115.172C134.282 115.172 135.108 113.936 135.264 113.686C136.818 111.04 137.441 109.077 137.118 107.856Z" fill="black"/>
<path d="M142.32 109.966C142.412 109.732 142.293 109.539 141.966 109.39C141.844 109.334 141.753 109.3 141.661 109.3C141.521 109.3 141.424 109.38 141.354 109.448L141.321 109.498C140.432 111.518 139.102 114.363 138.478 115.584C138.346 115.835 138.005 116.243 137.72 116.116C137.601 116.063 137.518 115.967 137.465 115.824C137.073 114.762 138.486 111.742 139.245 110.12C139.721 109.102 139.83 108.85 139.81 108.75C139.816 108.682 139.797 108.575 139.688 108.459C139.542 108.303 139.288 108.187 139.093 108.187C138.952 108.187 138.841 108.248 138.789 108.358L138.548 108.923C136.932 112.624 135.536 115.82 137.052 116.711L137.104 116.742C137.19 116.79 137.268 116.834 137.341 116.867C137.598 116.984 137.844 117.043 138.068 117.043C138.925 117.043 139.341 116.226 139.709 115.504L139.729 115.466C140.144 114.518 140.597 113.591 141.034 112.695C141.469 111.806 141.918 110.884 142.32 109.966Z" fill="black"/>
<path d="M144.531 114.748C144.595 114.612 144.57 114.503 144.538 114.435C144.426 114.201 144.075 114.12 143.792 114.053C143.722 114.036 143.66 114.023 143.624 114.009C143.47 113.948 143.258 113.855 143.098 113.769C143.284 113.199 143.566 112.471 143.842 111.769L143.88 111.688C143.908 111.631 143.96 111.565 144.13 111.565C144.471 111.565 144.99 111.832 145.268 111.975L145.424 112.053C145.53 112.091 145.624 112.109 145.708 112.109C145.915 112.109 146.002 111.992 146.038 111.915C146.083 111.805 146.083 111.691 146.036 111.583C145.899 111.259 145.376 111.048 145.03 110.908C144.966 110.883 144.91 110.86 144.86 110.837C143.816 110.431 143.178 110.539 142.856 111.211C141.947 113.277 140.754 116.731 140.43 117.769C140.396 117.917 140.438 118.077 140.54 118.205C140.643 118.333 140.794 118.411 140.943 118.411C141.122 118.411 141.278 118.301 141.367 118.111L141.388 118.069C141.646 117.516 141.832 116.965 142.012 116.432C142.231 115.787 142.438 115.177 142.748 114.616C142.831 114.643 142.943 114.687 143.051 114.731C143.364 114.855 143.754 115.008 144.056 115.008C144.346 115.008 144.474 114.867 144.531 114.748Z" fill="black"/>
<path d="M149.671 113.23C149.535 112.907 149.014 112.698 148.668 112.558C148.603 112.531 148.544 112.509 148.494 112.485C147.45 112.078 146.812 112.186 146.49 112.858C145.584 114.915 144.39 118.373 144.063 119.415C144.031 119.565 144.071 119.725 144.174 119.853C144.276 119.982 144.427 120.059 144.575 120.059C144.755 120.059 144.91 119.95 145 119.759L145.022 119.717C145.278 119.163 145.464 118.613 145.644 118.081C145.864 117.435 146.071 116.825 146.382 116.265C146.464 116.291 146.578 116.337 146.688 116.379C147 116.502 147.388 116.655 147.69 116.655C147.979 116.655 148.108 116.514 148.166 116.395C148.23 116.259 148.204 116.15 148.171 116.082C148.06 115.849 147.708 115.767 147.427 115.701C147.355 115.683 147.294 115.67 147.258 115.655C147.102 115.595 146.892 115.502 146.731 115.418C146.927 114.815 147.231 114.039 147.475 113.418L147.514 113.337C147.54 113.279 147.594 113.213 147.764 113.213C148.106 113.213 148.626 113.481 148.904 113.623L149.056 113.699C149.128 113.726 149.236 113.758 149.34 113.758C149.548 113.758 149.636 113.639 149.672 113.562C149.718 113.453 149.716 113.339 149.671 113.23Z" fill="black"/>
<path d="M130.484 121.62C129.426 124.317 125.728 125.863 123.01 126.88C124.295 124.096 126.007 121.644 126.718 118.736" fill="white"/>
<path d="M132.574 94.338C139.542 94.6993 151.014 97.8913 157.635 86.6073C159.362 83.666 159.798 80.1193 159.782 79.2927C159.535 66.8887 151.295 89.5087 139.147 88.178C136.284 87.8647 132.788 87.958 130.172 89.4473C120.962 94.686 132.574 94.338 132.574 94.338Z" fill="white"/>
<path d="M77.4752 70.7247C77.4752 70.7247 72.7992 64.3367 76.0858 57.358C79.3752 50.378 85.7552 42.3567 94.1845 44.4167C102.612 46.4753 105.007 49.5673 109.791 50.4633C114.578 51.3593 119.047 49.7873 119.867 49.2047C120.688 48.6207 121.902 48.798 121.902 48.798C121.902 48.798 123.484 55.7967 117.427 59.6993C112.404 62.938 110.772 60.3073 102.211 62.13C96.9765 63.2433 99.6832 66.8847 99.6832 66.8847" fill="black"/>
<path d="M121.868 80.3836C121.868 80.3836 135.512 76.3649 134.996 80.8823C134.486 85.4023 131.758 92.9969 131.758 92.9969L123.41 97.7516L121.13 95.1836L121.868 80.3836Z" fill="white"/>
<path d="M97.8327 76.7065C97.8327 76.7065 98.3327 86.4225 95.4233 89.5105C92.5047 92.5972 87.058 99.1745 87.058 99.1745L86.4007 101.474C86.4007 101.474 74.5193 98.0812 69.7273 102.369C64.938 106.656 63.4073 109.073 63.4073 109.073L61.8927 109.252C61.8927 109.252 60.9927 106.024 67.53 87.9438C74.062 69.8612 73.822 76.9065 73.822 76.9065L92.2113 66.3652L104.402 68.1398L97.8327 76.7065Z" fill="#E2E2E2"/>
<path d="M106.936 101.738C106.936 101.738 110.288 103.71 110.785 105.64C111.268 107.576 111.43 104.318 110.08 103.092C106.422 99.7971 104.186 99.8664 103.553 100.358C102.92 100.842 104.512 100.301 106.936 101.738Z" fill="white"/>
<path d="M87.6445 97.8574C85.4805 101.489 80.7005 102.635 76.9725 100.416C73.2432 98.1934 71.9765 93.4441 74.1379 89.8108C76.3045 86.1788 81.0792 85.0401 84.8099 87.2588C88.5325 89.4788 89.8045 94.2201 87.6445 97.8574Z" fill="#D5D5D5"/>
<path d="M83.7395 98.0645C82.4462 100.227 79.6195 100.923 77.4168 99.6099C75.2128 98.2992 74.4728 95.4779 75.7595 93.3072C77.0475 91.1459 79.8808 90.4499 82.0862 91.7552C84.2915 93.0739 85.0315 95.8952 83.7395 98.0645Z" fill="black"/>
</g>
<path d="M77.2746 93.012C76.4333 94.4107 76.88 96.2094 78.2586 97.028C79.6306 97.8454 81.4186 97.3787 82.2613 95.984C83.092 94.58 82.648 92.7867 81.2706 91.9627C80.8146 91.6894 80.3106 91.56 79.8106 91.56C78.812 91.56 77.828 92.0787 77.2746 93.012Z" fill="url(#paint1_radial_47_3416)"/>
<mask id="mask9_47_3416" style="mask-type:luminance" maskUnits="userSpaceOnUse" x="0" y="0" width="189" height="189">
<path d="M0 3.05176e-05H188.976V188.976H0V3.05176e-05Z" fill="white"/>
</mask>
<g mask="url(#mask9_47_3416)">
<path d="M81.1601 94.4546C80.7494 95.1493 79.8628 95.3826 79.1801 94.9706C78.4974 94.5639 78.2761 93.6773 78.6854 92.9826C79.0988 92.2906 79.9881 92.0626 80.6694 92.4666C81.3601 92.8813 81.5761 93.7613 81.1601 94.4546Z" fill="white"/>
<path d="M79.2416 96.3627C79.0736 96.6481 78.7203 96.7347 78.447 96.5774C78.1683 96.4067 78.0803 96.0467 78.2443 95.7721C78.4096 95.4894 78.7696 95.4067 79.043 95.5694C79.319 95.7334 79.403 96.0921 79.2416 96.3627Z" fill="white"/>
<path d="M85.7019 99.1863C85.7019 99.1863 85.8405 92.3317 81.3539 90.361C75.8712 87.9503 72.5952 92.737 72.5952 92.737C72.5952 92.737 78.1619 89.5397 81.8285 92.6103C85.4872 95.6717 85.7019 99.1863 85.7019 99.1863Z" fill="black"/>
<path d="M85.7019 99.1863C85.7019 99.1863 85.8405 92.3317 81.3539 90.361C75.8712 87.9503 72.5952 92.737 72.5952 92.737C72.5952 92.737 78.1619 89.5397 81.8285 92.6103C85.4872 95.6717 85.7019 99.1863 85.7019 99.1863Z" stroke="black" stroke-width="0.685333" stroke-linecap="round" stroke-linejoin="round"/>
<path d="M65.6477 86.0106C69.3091 75.7226 79.1704 67.0893 91.2571 63.8533C91.2571 63.8533 91.4411 57.5639 112.462 68.7106C124.441 75.0559 125.093 86.2626 125.093 86.2626C125.093 86.2626 126.952 100.687 118.453 113.311C108.076 128.736 92.6637 141.989 72.3651 129.785C53.2704 118.309 60.0584 101.74 65.6477 86.0106Z" fill="black"/>
<path d="M67.3274 88.1655C70.8074 78.4175 79.9674 68.9922 91.3634 65.8909C91.3634 65.8909 95.8634 65.0375 102.083 67.0935C104.778 67.9802 107.795 69.4135 110.913 71.7069C114.971 74.6922 117.899 76.2549 119.905 79.8402C122.121 83.7922 122.171 86.3602 122.171 86.3602C122.171 86.3602 124.001 102.235 115.902 112.908C107.797 123.58 86.6674 140.475 72.8141 127.822C57.3887 113.75 62.0087 103.063 67.3274 88.1655Z" fill="white"/>
<path d="M92.6139 79.6531C92.6139 79.6531 90.5312 75.7785 86.6992 75.6798C82.9685 75.5878 81.0645 76.4665 81.0565 77.0051C81.0592 77.5345 81.1859 78.2091 82.8285 77.8638C84.4645 77.5265 87.3379 76.7011 89.0805 78.1851C90.8192 79.6691 92.4192 81.2838 92.6139 79.6531Z" fill="black"/>
<path d="M73.7545 108.872C73.6025 108.223 73.6238 107.561 74.1412 107.455C74.1412 107.455 79.9505 104.759 86.4852 108.397C93.5505 112.329 94.3665 117.297 94.3665 117.297C94.3665 117.297 94.4838 118.091 93.4545 118.369C90.2732 119.213 81.4358 120.595 80.2465 120.593C79.0145 120.589 74.5292 112.1 73.7545 108.872Z" fill="black"/>
<path d="M75.7207 126.432C75.7207 126.432 71.918 130.458 67.3233 127.715C62.7127 124.968 66.8953 127.543 66.8953 127.543L70.8887 129.167C70.8887 129.167 75.2127 130.192 77.6687 133.204C79.6647 135.663 80.6433 135.359 80.6433 135.359C80.6433 135.359 75.7433 131.634 76.002 130.04C76.2607 128.442 75.7207 126.432 75.7207 126.432Z" fill="black"/>
<path d="M80.927 137.094C80.927 137.094 79.1403 135.619 77.3403 133.461C75.5483 131.289 74.9443 130.237 73.2137 129.993C71.487 129.747 67.695 129.469 65.5457 128.193C63.3937 126.911 64.8883 127.115 64.8883 127.115L74.5057 129.083L77.8137 132.663L82.2777 136.849L80.927 137.094Z" fill="black"/>
<path d="M66.6823 128.682C68.8543 130.059 71.8569 129.523 73.9463 131.035C73.7769 131.634 75.0996 131.442 75.3956 131.736C75.2036 132.239 76.4809 132.595 76.7156 132.914C76.8836 133.171 76.9863 133.508 77.2223 133.771C77.6329 134.218 78.1943 134.594 78.6903 134.932C79.3796 135.41 80.2423 135.931 81.0543 136.108C81.5143 135.514 79.9263 134.184 79.5836 133.884C78.9169 133.294 78.3409 132.622 77.7409 131.95C77.3303 131.486 76.8796 131.1 76.4916 130.611C76.1476 130.179 75.6476 129.412 75.1116 129.174C74.9023 129.091 74.7516 129.147 74.5183 129.182C73.8943 129.278 73.2249 129.29 72.6076 129.22C71.9209 129.132 71.2383 128.964 70.5356 128.94C69.7263 128.918 68.9983 128.911 68.2263 128.675C67.7423 128.515 67.1689 128.466 66.7356 128.216L66.6823 128.682Z" fill="black"/>
<path d="M108.764 90.918C108.764 90.918 95.9642 91.63 93.3095 102.31C90.4082 113.975 102.61 118.866 109.122 117.013C113.058 115.895 113.644 113.07 113.603 108.875C113.554 103.982 121.056 94.7554 108.764 90.918Z" fill="black"/>
<path d="M74.3665 90.965C72.4999 94.0823 73.7559 98.2463 77.1479 100.278C80.5479 102.294 84.8092 101.409 86.6625 98.2903C88.5252 95.1703 87.2732 91.0036 83.8785 88.9796C80.4799 86.9543 76.2225 87.845 74.3665 90.965Z" fill="white"/>
<path d="M76.0207 92.4676C74.5567 94.9236 75.4021 98.113 77.8981 99.5956C80.3887 101.086 83.5954 100.309 85.0594 97.849C86.5207 95.3983 85.6781 92.1983 83.1874 90.7143C80.6874 89.233 77.4874 90.013 76.0207 92.4676Z" fill="black"/>
<mask id="mask10_47_3416" style="mask-type:luminance" maskUnits="userSpaceOnUse" x="78" y="91" width="8" height="7">
<path d="M78.4174 91.1759H85.0176V97.8283H78.4174V91.1759Z" fill="white"/>
</mask>
<g mask="url(#mask10_47_3416)">
<g opacity="0.5">
<path d="M84.5374 96.1841C83.6014 97.7681 81.5654 98.3001 80.0107 97.3707C78.4494 96.4427 77.952 94.4014 78.8907 92.8201C79.8374 91.2321 81.868 90.7054 83.4294 91.6321C84.9867 92.5574 85.484 94.5974 84.5374 96.1841Z" fill="url(#paint2_radial_47_3416)"/>
</g>
</g>
<path d="M81.0013 93.0828C80.5333 93.8695 80.784 94.8788 81.5613 95.3415C82.3333 95.8042 83.3413 95.5455 83.808 94.7495C84.2733 93.9735 84.0253 92.9722 83.248 92.5082C82.4706 92.0495 81.4666 92.3082 81.0013 93.0828Z" fill="white"/>
<path d="M80.1393 96.0424C79.9553 96.3518 80.054 96.7598 80.362 96.9424C80.674 97.1304 81.0833 97.0238 81.27 96.7104C81.458 96.3944 81.3526 95.9918 81.042 95.7998C80.7286 95.6184 80.3273 95.7224 80.1393 96.0424Z" fill="white"/>
<path d="M96.901 112.468C96.901 112.468 88.5037 101.092 73.257 98.8335C65.8064 97.7242 81.2264 96.4295 91.3144 103.476C101.397 110.538 96.901 112.468 96.901 112.468Z" fill="black"/>
<path d="M109.182 109.958C107.237 113.224 106.002 112.029 103.004 110.244C99.9956 108.458 95.4556 106.644 97.3943 103.377C99.3436 100.11 105.334 97.1865 107.568 100.124C109.677 102.897 111.126 106.694 109.182 109.958Z" fill="white"/>
<path d="M98.5079 105.552C97.2226 107.718 97.9599 110.542 100.161 111.849C102.368 113.161 105.199 112.469 106.488 110.306C107.784 108.134 107.043 105.318 104.837 104.004C102.629 102.694 99.7999 103.385 98.5079 105.552Z" fill="black"/>
<mask id="mask11_47_3416" style="mask-type:luminance" maskUnits="userSpaceOnUse" x="100" y="104" width="7" height="7">
<path d="M100.626 104.411H106.453V110.284H100.626V104.411Z" fill="white"/>
</mask>
<g mask="url(#mask11_47_3416)">
<g opacity="0.5">
<path d="M106.035 108.833C105.2 110.235 103.405 110.699 102.031 109.881C100.653 109.063 100.213 107.263 101.049 105.864C101.876 104.465 103.676 103.993 105.048 104.813C106.424 105.633 106.863 107.439 106.035 108.833Z" fill="url(#paint3_radial_47_3416)"/>
</g>
</g>
<path d="M102.908 106.104C102.501 106.791 102.717 107.686 103.394 108.094C104.081 108.495 104.969 108.267 105.377 107.582C105.792 106.886 105.574 105.994 104.893 105.59C104.208 105.182 103.32 105.41 102.908 106.104Z" fill="white"/>
<path d="M102.145 108.701C101.971 108.981 102.071 109.336 102.341 109.5C102.619 109.667 102.979 109.568 103.145 109.296C103.307 109.02 103.215 108.657 102.935 108.501C102.663 108.335 102.305 108.427 102.145 108.701Z" fill="white"/>
<path d="M99.4193 124.291C99.4193 124.291 97.5766 126.882 98.3993 127.507C99.2086 128.136 99.094 128.69 99.094 128.69C99.094 128.69 100.711 128.123 104.029 125.763C107.343 123.402 111.687 118.47 111.687 118.47C111.687 118.47 107.721 119.948 104.266 118.384C100.811 116.807 97.7953 119.403 97.7953 119.403L99.4193 124.291Z" fill="white"/>
<path d="M79.4662 71.4688C79.4662 71.4688 68.5555 80.9755 65.3715 93.7995C62.8355 104.014 62.2928 109.457 62.2928 109.457L59.9808 107.622C59.9808 107.622 61.4262 96.1502 64.7568 88.0502C68.0835 79.9635 71.7528 76.4688 71.7528 76.4688L79.4662 71.4688Z" fill="black"/>
<path d="M117.167 76.7696C117.167 76.7696 120.873 80.1096 122.009 83.3869C123.149 86.6656 122.513 90.1909 122.343 90.7469C122.182 91.3016 123.297 95.7096 121.731 100.796C120.166 105.882 119.018 106.988 119.018 106.988L117.063 102.079C117.063 102.079 118.479 97.2363 118.261 94.3269C118.039 91.4323 112.725 80.9496 112.725 80.9496L117.167 76.7696Z" fill="white"/>
<path d="M92.0982 106.132C92.0982 106.132 83.6489 101.929 89.4729 105.164C93.3542 107.322 97.6849 110.528 101.376 115.222C105.897 120.969 99.4489 107.636 88.8369 102.094C78.2302 96.5503 92.0982 106.132 92.0982 106.132Z" fill="black"/>
<path d="M117.564 76.9135C117.564 76.9135 120.609 79.4788 121.344 83.7815C121.799 86.4282 123.203 84.4495 123.584 84.8708C125.483 86.9455 121.629 101.927 121.203 102.827C119.901 105.582 119.091 102.364 119.091 102.364L110.899 79.6215L117.564 76.9135Z" fill="white"/>
<path d="M114.837 74.437C114.837 74.437 118.301 76.9437 119.446 78.9357C120.597 80.9197 121.801 86.9743 121.801 86.9743C121.801 86.9743 125.063 87.1903 123.307 82.6157C121.559 78.049 119.57 76.6903 119.57 76.6903L114.837 74.437Z" fill="black"/>
<path d="M125.647 97.2339C125.647 97.2339 123.284 93.1139 123.089 94.1632C122.892 95.2232 121.128 100.954 120.928 101.553C120.727 102.151 115.697 112.511 113.781 114.982C111.869 117.453 104.241 125.145 101.576 127.199C98.9225 129.258 103.349 129.443 103.349 129.443C103.349 129.443 112.904 120.201 116.388 115.647C119.877 111.103 123.397 101.459 123.397 101.459L128.131 91.2806L125.647 97.2339Z" fill="#040404"/>
<path d="M119.156 77.189C119.156 77.189 125.952 67.3757 135.172 72.277C144.729 77.3557 150.778 81.7343 151.732 80.4077C156.745 73.437 158.324 75.2477 158.324 75.2477C158.324 75.2477 158.676 85.421 151.17 90.5437C144.886 94.833 136.566 89.0663 131.114 91.5597C129.649 92.2277 123.628 100.658 123.628 100.658L123.365 96.925C123.365 96.925 116.16 82.513 119.156 77.189Z" fill="black"/>
<path d="M118.247 80.6922C118.247 80.6922 119.247 81.8589 120.555 81.1215C121.868 80.3842 127.427 79.4749 131.34 81.0215C135.252 82.5682 141.655 84.4629 144.289 84.6002C146.927 84.7389 151.112 83.1509 151.112 83.1509C151.112 83.1509 145.884 89.3362 138.432 89.3309C131.425 89.3255 121.524 97.5989 121.524 97.5989L117.864 86.2415L118.247 80.6922Z" fill="white"/>
<path d="M95.2337 67.5763C95.171 68.5603 91.1657 58.531 103.203 59.027C111.547 59.3697 116.498 59.7497 118.675 55.5857C120.236 52.5937 119.695 50.4163 119.695 50.4163C119.695 50.4163 113.823 56.4923 107.914 53.0323C92.7817 44.1777 86.4337 45.5323 80.1857 55.1577C73.9377 64.7843 82.095 70.8243 82.095 70.8243" fill="white"/>
<path d="M87.7766 54.614C87.7766 54.614 89.4606 55.2887 87.914 56.8087C85.554 59.126 83.5513 66.2594 84.5486 65.9434C86.298 65.3914 86.854 65.2807 88.9193 64.89C93.0193 64.1127 92.8153 65.8714 92.8153 65.8714C92.8153 65.8714 83.526 68.866 82.8593 69.1527C82.194 69.4367 78.6606 62.8554 87.7766 54.614Z" fill="black"/>
<path d="M121.833 83.2358C121.833 83.2358 126.449 80.7065 134.41 84.1571C139.586 86.4011 143.558 83.8465 143.558 83.8465L157.126 82.3158C157.126 82.3158 153.561 94.0745 144.923 93.0198C126.177 90.7345 123.381 101.99 123.381 101.99C123.381 101.99 120.889 102.301 121.817 98.6211C123.327 92.6185 121.833 83.2358 121.833 83.2358Z" fill="black"/>
<path d="M64.7285 117.116C64.7285 117.116 60.5099 134.108 69.3339 139.339C78.5565 144.8 92.0859 128.843 92.0859 128.843C92.0859 128.843 83.2872 115.887 75.0272 114.175C66.7592 112.477 64.7285 117.116 64.7285 117.116Z" fill="black"/>
<path d="M68.5971 114.613C68.5971 114.613 64.4131 129.919 67.9238 134.351C71.4331 138.779 74.5998 138.445 77.1104 137.405C83.4184 134.782 86.2651 128.935 86.2651 128.935L83.1038 124.047L68.5971 114.613Z" fill="white"/>
<path d="M69.8235 121.596C69.8235 121.596 67.9542 130.66 71.6889 133.23C76.2342 136.354 81.7409 129.48 81.7409 129.48L77.0649 123.473L69.8235 121.596Z" fill="black"/>
<path d="M78.485 102.124C78.485 102.124 74.8464 99.9531 69.9344 101.226C66.2797 102.178 57.885 105.808 60.561 114.652C63.8664 125.577 75.2997 127.096 77.5424 124.096C79.785 121.097 90.813 108.132 78.485 102.124Z" fill="black"/>
<path d="M64.3301 99.9239L64.7034 107.791L70.5127 109.819L75.1714 109.209L83.8994 112.229L88.5727 116.497L91.1607 120.475C91.1607 120.475 100.461 128.208 100.786 128.108C101.111 128.016 109.07 119.041 109.07 119.041C109.07 119.041 105.173 121.48 104.745 119.477C104.302 117.476 98.8367 112.815 98.8367 112.815L82.9807 101.921L73.4181 99.4013L68.0954 99.1573L64.3301 99.9239Z" fill="white"/>
<path d="M97.1933 112.178C97.1933 112.178 101.617 114.909 101.671 120.033C101.725 125.147 101.453 128.167 96.168 131.085C90.896 134.001 83.8653 132.413 80.4453 127.15C77.0213 121.887 81.628 115.925 85.2253 114.053C88.824 112.179 96.252 111.321 97.1933 112.178Z" fill="white"/>
<path d="M78.3275 102.623C78.3275 102.623 74.3555 100.716 70.0461 102.925C65.7395 105.14 62.5928 105.825 62.6155 111.531C62.6421 117.235 67.6141 122.672 73.6115 123.219C79.6128 123.763 82.4461 117.28 82.3355 113.456C82.2181 109.621 79.4755 103.024 78.3275 102.623Z" fill="white"/>
<path d="M102.977 124.624C102.977 124.624 102.65 125.155 102.343 125.139C102.049 125.12 100.817 125.272 100.879 126.126C100.911 126.59 100.883 127.887 100.667 128.25C100.453 128.61 99.7672 129.763 99.2472 130.118C98.7272 130.459 97.2272 131.038 96.4339 131.468C95.6446 131.896 92.3419 133.046 91.2312 132.954C90.1259 132.876 88.3872 132.819 87.9446 132.64C87.5072 132.46 87.0166 133.556 88.0072 133.827C89.0086 134.096 90.7486 135.911 94.5859 134.458C95.6859 134.04 97.3926 133.355 98.5379 132.723C99.6806 132.09 101.746 130.38 102.181 129.639C103.109 128.09 104.402 125.215 103.125 125.538C102.819 125.616 103.182 124.667 102.977 124.624Z" fill="black"/>
<path d="M94.8249 114.102C94.8249 114.102 86.1782 115.255 85.1316 115.555C83.6556 115.978 79.3022 122.079 79.8689 124.894C80.4396 127.704 81.5556 128.07 82.1422 128.831C82.7236 129.591 83.5836 130.499 85.8342 131.555C88.8782 132.968 91.5942 132.523 91.5942 132.523C86.4316 130.58 83.5196 130.224 82.5356 125.788C81.8742 122.804 84.2582 119.707 84.8716 119.207C87.6289 116.947 94.8249 114.102 94.8249 114.102Z" fill="#D9D9D9"/>
<path d="M70.0111 122.271C77.0964 125.067 79.7391 121.516 81.9351 116.418C84.1284 111.324 79.7604 107.358 79.7604 107.358C79.7604 107.358 77.4138 105.83 78.2431 109.1C79.0684 112.375 80.6711 114.542 79.1951 117.03C77.7111 119.516 75.8578 123.966 70.0151 120.49C64.1698 117.01 63.4404 114.123 63.4404 114.123C63.4404 114.123 62.4751 112.366 62.8724 113.782C63.5338 116.188 65.2444 120.363 69.9818 122.242" fill="#D9D9D9"/>
<mask id="mask12_47_3416" style="mask-type:luminance" maskUnits="userSpaceOnUse" x="78" y="103" width="16" height="9">
<path d="M78.4309 103.057H93.3053V111.4H78.4309V103.057Z" fill="white"/>
</mask>
<g mask="url(#mask12_47_3416)">
<g opacity="0.5">
<path d="M90.7376 105.117C90.7376 105.117 86.7469 102.818 82.5456 103.077C78.3323 103.355 78.0403 103.733 78.7029 105.375C79.3549 107.009 81.7603 111.642 82.0403 111.39C82.3216 111.143 81.3509 107.162 84.3563 106.942C87.3696 106.718 90.6029 107.534 91.8643 109.045C93.1149 110.557 94.8176 107.695 90.7376 105.117Z" fill="white"/>
</g>
</g>
<path d="M82.4128 113.17C82.4128 113.17 82.4434 115.207 81.5074 116.781C80.5701 118.35 77.0221 124.033 77.1274 124.49C77.2781 125.145 77.4661 125.477 78.2328 125.263C79.0074 125.051 82.6368 118.859 83.1088 118.075C83.5768 117.287 85.5408 115.118 86.0301 114.979C86.5101 114.854 82.4128 113.17 82.4128 113.17Z" fill="black"/>
</g>
<mask id="mask13_47_3416" style="mask-type:luminance" maskUnits="userSpaceOnUse" x="77" y="101" width="21" height="15">
<path d="M77.616 102.369C77.164 102.461 77.0774 102.955 77.1627 103.581C77.344 104.779 78.1667 106.473 78.3187 106.841C79.9614 110.62 82.7894 115.545 83.744 115.595C86.4174 115.727 89.3614 114.877 92.0134 114.407C92.7587 114.264 95.1467 114.115 96.6267 113.557C97.4067 113.264 97.9614 112.857 97.98 112.284C97.98 112.284 97.3187 108.193 91.9267 104.481C89.232 102.625 85.9134 101.373 82.556 101.373C80.8947 101.373 79.2254 101.68 77.616 102.369Z" fill="white"/>
</mask>
<g mask="url(#mask13_47_3416)">
<path d="M78.3197 106.841C79.9603 110.619 82.7897 115.546 83.7441 115.595C85.1048 113.422 87.0892 110.663 88.8476 107.89C85.623 106.045 81.0371 103.57 77.1621 103.582C77.3431 104.779 78.1673 106.473 78.3197 106.841Z" fill="#040404"/>
<path d="M83.7441 115.595C83.9616 115.606 84.181 115.61 84.4017 115.609C85.7585 113.532 87.8216 110.916 89.6022 108.255C89.3535 108.132 89.1035 108.01 88.8477 107.89C87.0892 110.663 85.1048 113.422 83.7441 115.595Z" fill="#040404"/>
<path d="M84.4016 115.609C86.8938 115.591 89.5767 114.839 92.0129 114.407C92.759 114.264 95.147 114.115 96.6262 113.557C95.7017 113.587 94.246 110.905 89.6021 108.255C87.8215 110.916 85.7584 113.532 84.4016 115.609Z" fill="#040404"/>
<path d="M77.1621 103.582C81.0371 103.57 85.623 106.045 88.8476 107.89C89.7076 106.569 90.5175 105.242 91.1881 103.998C87.2506 101.549 82.1875 100.41 77.6159 102.37C77.1634 102.461 77.0768 102.955 77.1621 103.582Z" fill="#040404"/>
<path d="M88.8477 107.89C89.1035 108.01 89.3535 108.132 89.6022 108.255C90.4785 106.985 91.2884 105.701 91.9277 104.481C91.6862 104.315 91.4395 104.154 91.1882 103.998C90.5176 105.242 89.7077 106.569 88.8477 107.89Z" fill="#040404"/>
<path d="M89.6022 108.255C94.246 110.905 95.7018 113.587 96.6263 113.557C97.4062 113.264 97.9615 112.858 97.9804 112.285C97.9804 112.285 97.3183 108.193 91.9277 104.481C91.2884 105.701 90.4785 106.985 89.6022 108.255Z" fill="#040404"/>
</g>
<mask id="mask14_47_3416" style="mask-type:luminance" maskUnits="userSpaceOnUse" x="0" y="0" width="189" height="189">
<path d="M0 3.05176e-05H188.976V188.976H0V3.05176e-05Z" fill="white"/>
</mask>
<g mask="url(#mask14_47_3416)">
<path d="M92.0853 114.324C91.1 114.422 90.0107 114.644 88.928 113.644C87.8427 112.64 87.512 111.206 88.204 110.43C88.8787 109.648 90.3093 109.836 91.3973 110.837C92.48 111.838 93.8707 114.145 92.0853 114.324Z" fill="black"/>
<path d="M84.5208 108.997C84.1701 109.968 82.6475 110.332 81.1101 109.821C79.5848 109.307 79.2675 108.539 78.9035 107.608C78.0835 105.517 80.8608 105.797 82.3861 106.308C83.9195 106.817 84.8768 108.023 84.5208 108.997Z" fill="black"/>
<mask id="mask15_47_3416" style="mask-type:luminance" maskUnits="userSpaceOnUse" x="79" y="102" width="17" height="11">
<path d="M79.2852 102.485H95.6308V112.115H79.2852V102.485Z" fill="white"/>
</mask>
<g mask="url(#mask15_47_3416)">
<g opacity="0.199997">
<path d="M80.3392 102.798C78.8138 103.562 79.2005 105.404 79.8925 105.396C81.1245 105.376 83.5365 104.841 84.5232 106.51C85.5112 108.177 85.1925 109.913 84.6778 110.786C84.3312 111.358 85.9845 112.808 86.8045 111.721C87.1965 111.202 87.2418 110.854 87.7885 110.153C88.9418 108.629 91.4778 109.808 92.0192 110.597C92.4952 111.3 95.3325 111.678 95.6125 110.488C95.9072 109.294 92.6685 104.921 86.7672 103.244C84.1885 102.506 81.5298 102.209 80.3392 102.798Z" fill="white"/>
</g>
</g>
<mask id="mask16_47_3416" style="mask-type:luminance" maskUnits="userSpaceOnUse" x="80" y="102" width="15" height="10">
<path d="M80.2246 102.848H94.6711V111.061H80.2246V102.848Z" fill="white"/>
</mask>
<g mask="url(#mask16_47_3416)">
<g opacity="0.399994">
<path d="M86.7011 103.535C84.1651 102.812 81.9238 102.645 81.0038 103.108C80.1798 103.517 80.2105 104.213 80.2318 104.424C80.2731 104.711 80.4211 104.872 80.5011 104.876L81.1465 104.833C82.4225 104.743 84.1718 104.609 85.0145 106.041C86.0665 107.817 85.5931 109.561 85.1451 110.316C85.1451 110.361 85.2611 110.624 85.5811 110.847C85.7411 110.955 86.2758 111.272 86.6038 110.843L86.9598 110.28C86.9598 110.269 87.5011 109.407 87.5011 109.407C87.8945 108.88 88.4611 108.591 89.1371 108.573C90.3171 108.535 91.5411 109.253 91.9051 109.788C92.1145 110.107 93.3505 110.428 94.1838 110.192C94.4585 110.112 94.6198 109.995 94.6625 109.835C94.8425 109.084 92.1345 105.089 86.7011 103.535Z" fill="white"/>
</g>
</g>
<path d="M82.6047 103.289C82.6047 103.289 81.2421 103.681 82.1541 104.035C83.0647 104.395 85.1567 104.536 85.9581 105.377C88.1434 107.695 92.6527 107.96 89.8661 105.675C88.6434 104.665 85.1901 103.171 82.6047 103.289Z" fill="white"/>
<path d="M80.4056 122.272C79.8869 122.933 79.7803 124.452 79.8949 125.25C79.9243 125.458 80.0749 125.729 80.1283 125.924C81.1203 129.316 86.5883 131.82 86.6896 132.014C86.0856 132.242 84.7323 131.685 84.1029 131.578C83.6856 131.502 83.3456 131.481 82.9923 131.308C81.9816 130.806 81.1829 129.75 80.4203 128.95C79.9483 128.452 79.6056 128.052 79.2189 127.494C78.6896 126.722 77.8629 126.089 77.0003 125.897C76.3803 125.75 75.8349 125.426 75.2336 125.198C74.7096 125.01 73.7456 124.933 73.3469 124.625C74.3896 124.533 75.4896 124.472 76.5243 124.302C76.9549 124.23 77.3669 124.213 77.7336 123.932C78.2616 123.541 78.7643 122.962 79.3629 122.669C79.5363 122.6 79.5949 122.493 79.7883 122.562L80.4056 122.272Z" fill="black"/>
<path d="M63.528 107.027C63.528 107.027 64.6987 105.666 66.9707 105.318C69.2347 104.969 69.8587 104.127 69.1947 103.611C67.7773 102.529 63.86 103.218 62.9307 104.366C62.0027 105.513 63.528 107.027 63.528 107.027Z" fill="black"/>
<path d="M101.804 122.309C101.385 122.076 99.8053 121.601 100.112 122.515C100.112 122.515 100.441 123.529 100.703 124.677C100.952 125.824 99.412 128.947 98.92 129.335C96.4693 131.256 103.553 127.029 103.553 127.029C103.553 127.029 104.223 123.647 101.804 122.309Z" fill="black"/>
<path d="M76.6321 125.896C76.6321 125.896 79.5174 132.845 86.3454 134.443C92.4374 135.871 93.4441 134.255 91.2001 133.251C91.2001 133.251 86.0214 132.469 82.7481 129.644C81.0734 128.2 77.6414 125.069 77.6414 125.069L76.6321 125.896Z" fill="black"/>
<path d="M88.401 122.869C88.5236 122.201 89.1636 121.759 89.829 121.884C90.4996 122.009 90.941 122.649 90.817 123.317C90.693 123.981 90.049 124.425 89.381 124.299C88.7156 124.175 88.277 123.532 88.401 122.869Z" fill="black"/>
<path d="M88.7409 127.69C88.8622 127.038 89.5022 126.595 90.1689 126.718C90.8342 126.84 91.2755 127.486 91.1555 128.139C91.0302 128.808 90.3875 129.254 89.7195 129.132C89.0542 129.007 88.6155 128.359 88.7409 127.69Z" fill="black"/>
<path d="M68.4792 110.343C68.6059 109.671 69.2539 109.234 69.9179 109.358C70.5832 109.479 71.0272 110.121 70.9019 110.793C70.7792 111.455 70.1352 111.894 69.4699 111.769C68.8046 111.647 68.3566 111.005 68.4792 110.343Z" fill="black"/>
<path d="M72.9173 113.099C73.0399 112.44 73.6759 111.996 74.3413 112.119C75.0159 112.244 75.4506 112.887 75.3266 113.547C75.2026 114.22 74.5679 114.66 73.8919 114.535C73.2266 114.412 72.7919 113.772 72.9173 113.099Z" fill="black"/>
<path d="M68.6894 114.966C68.8121 114.298 69.4534 113.86 70.1174 113.983C70.7881 114.108 71.2241 114.747 71.1028 115.416C70.9788 116.08 70.3388 116.526 69.6681 116.402C69.0041 116.278 68.5641 115.631 68.6894 114.966Z" fill="black"/>
<path d="M94.1919 126.572C94.3159 125.904 94.9572 125.466 95.6199 125.59C96.2919 125.713 96.7279 126.352 96.6052 127.02C96.4812 127.685 95.8412 128.13 95.1706 128.005C94.5052 127.884 94.0679 127.237 94.1919 126.572Z" fill="black"/>
<path d="M71.7012 125.169C71.7012 125.169 77.8705 127.661 78.4905 129.885C78.9412 131.496 75.1772 133 73.4532 132.252C69.3438 130.469 71.7012 125.169 71.7012 125.169Z" fill="#DE175D"/>
<path d="M66.8092 83.9265C65.4372 83.5372 64.2385 82.8225 62.9012 82.3652C63.4665 83.7652 64.3585 85.5612 65.7598 86.2985C64.4998 87.5065 59.4092 87.2439 60.7038 88.1812C61.1998 88.5412 63.2198 89.1625 64.7052 88.9359C64.7625 89.7452 63.4252 92.8172 63.4718 93.6345" fill="black"/>
<path d="M124.056 97.8796C125.656 98.6903 127.939 99.6569 129.725 99.7076C129.005 102.186 122.132 98.9783 122.469 102.865C122.628 101.51 123.072 98.1743 124.745 98.0756" fill="black"/>
<path d="M118.417 90.506C118.417 90.506 119.463 86.6473 116.986 84.1833C114.575 81.7873 112.765 81.1673 112.426 81.5233C112.09 81.878 111.755 82.406 113.053 83.2007C114.351 83.9993 116.761 85.2553 116.994 87.3313C117.215 89.3953 117.262 91.466 118.417 90.506Z" fill="black"/>
<path d="M70.9889 129.466C71.3662 129.08 71.8062 128.656 72.5022 128.67C72.3009 129.008 72.0062 129.431 72.1555 129.832C72.2702 130.143 73.0009 130.695 73.2862 130.864C73.5129 130.996 74.2129 131.378 74.4702 131.364C74.9062 131.34 75.3822 130.638 75.7049 130.374C75.8222 130.936 76.1715 131.899 75.6502 132.366C75.1849 132.78 74.2342 132.62 73.7315 132.462C72.1982 131.976 71.1409 131.128 70.9675 129.474" fill="white"/>
<path d="M131.319 140.745C131.346 140.489 131.34 140.251 131.436 139.975C131.472 140.087 131.735 140.348 131.902 140.395C132.116 139.668 132.476 138.553 132.68 137.832C132.543 138.525 132.418 139.436 132.63 140.007" stroke="white" stroke-width="0.289333" stroke-linecap="round" stroke-linejoin="round"/>
<path d="M132.197 139.655C132.53 139.288 132.778 139.198 133.141 138.85C132.927 139.09 132.789 139.65 133.183 139.444C133.218 139.406 133.329 139.291 133.359 139.256C134.178 138.23 133.978 137.458 134.373 136.363C134.463 137.143 134.23 138.082 134.387 138.73C135.335 136.726 136.637 136.714 138.934 135.406" stroke="white" stroke-width="0.289333" stroke-linecap="round" stroke-linejoin="round"/>
<path d="M131.122 138.964C131.073 139.088 131.086 139.19 131.161 139.268" stroke="white" stroke-width="0.289333" stroke-linecap="round" stroke-linejoin="round"/>
<path d="M126.681 146.023C127.149 144.612 128.057 140.132 128.012 139.607C128.308 140.326 127.937 141.764 128.474 143.027C128.561 142.932 128.772 142.375 128.797 142.282C128.905 141.822 129.425 139.503 129.541 138.842C129.524 139.92 129.309 141.226 129.857 142.094C130.17 141.666 130.725 141.16 131.32 140.746" stroke="white" stroke-width="0.289333" stroke-linecap="round" stroke-linejoin="round"/>
</g>
<defs>
<linearGradient id="paint0_linear_47_3416" x1="44.6653" y1="94.5281" x2="143.715" y2="94.5281" gradientUnits="userSpaceOnUse">
<stop stop-color="#9A9898"/>
<stop offset="0.016854" stop-color="#9A9898"/>
<stop offset="0.460674" stop-color="#EDECEC"/>
<stop offset="1" stop-color="#CECECE"/>
</linearGradient>
<radialGradient id="paint1_radial_47_3416" cx="0" cy="0" r="1" gradientUnits="userSpaceOnUse" gradientTransform="translate(79.7688 94.4975) rotate(-149.229) scale(2.92516)">
<stop stop-color="white"/>
<stop offset="0.509949"/>
<stop offset="1"/>
</radialGradient>
<radialGradient id="paint2_radial_47_3416" cx="0" cy="0" r="1" gradientUnits="userSpaceOnUse" gradientTransform="translate(81.7155 94.4995) rotate(30.7712) scale(3.31255)">
<stop stop-color="white"/>
<stop offset="0.509949"/>
<stop offset="1"/>
</radialGradient>
<radialGradient id="paint3_radial_47_3416" cx="0" cy="0" r="1" gradientUnits="userSpaceOnUse" gradientTransform="translate(103.541 107.35) rotate(30.7712) scale(2.92451)">
<stop stop-color="white"/>
<stop offset="0.509949"/>
<stop offset="1"/>
</radialGradient>
</defs>
</svg>
