<svg width="244" height="134" viewBox="0 0 244 134" fill="none" xmlns="http://www.w3.org/2000/svg">
<g clip-path="url(#clip0_94_6287)">
<g clip-path="url(#clip1_94_6287)">
<mask id="mask0_94_6287" style="mask-type:luminance" maskUnits="userSpaceOnUse" x="144" y="123" width="9" height="2">
<path d="M144.568 123.021H152.663V124.285H144.568V123.021Z" fill="white"/>
</mask>
<g mask="url(#mask0_94_6287)">
<g opacity="0.5">
<path d="M148.019 123.926C148.016 123.927 148.013 123.928 148.006 123.929C148.016 123.925 148.021 123.922 148.032 123.916C148.029 123.918 148.026 123.922 148.026 123.925C148.022 123.925 148.021 123.926 148.019 123.926ZM152.608 124.188C152.606 124.188 151.309 124.027 150.228 124.004C149.817 123.998 149.438 124.007 149.163 124.057C149.323 123.905 149.645 123.733 149.66 123.51C149.66 123.498 149.66 123.483 149.657 123.469C149.656 123.453 149.639 123.437 149.618 123.432C149.598 123.424 149.575 123.426 149.555 123.435C149.137 123.679 149.031 123.925 148.515 124.039C148.507 124.033 148.501 124.027 148.493 124.02C148.506 124.009 148.511 124 148.516 123.998C148.524 123.991 148.53 123.983 148.592 123.971C148.626 123.965 148.646 123.94 148.638 123.915C148.63 123.888 148.598 123.87 148.565 123.875C148.425 123.892 148.315 123.892 148.19 123.903C148.256 123.824 148.339 123.739 148.423 123.661C148.498 123.605 148.575 123.54 148.649 123.468C148.669 123.449 148.668 123.42 148.639 123.401C148.615 123.384 148.578 123.384 148.552 123.402C148.486 123.457 148.407 123.522 148.329 123.594C148.11 123.76 147.881 123.875 147.694 123.984C147.677 123.937 147.657 123.894 147.657 123.879C147.664 123.859 147.656 123.837 147.631 123.826C147.607 123.812 147.579 123.812 147.557 123.826C147.456 123.883 147.396 123.948 147.337 124.007C147.083 124.006 146.823 124.027 146.622 124.069C146.671 123.791 146.884 123.665 147.142 123.383C147.161 123.362 147.157 123.332 147.132 123.316C147.106 123.299 147.066 123.3 147.042 123.319C146.848 123.475 146.254 123.831 146.099 123.941C146.092 123.949 146.023 123.988 145.955 124.022C146.114 123.634 146.513 123.346 146.594 123.081C146.599 123.057 146.584 123.033 146.552 123.024C146.523 123.016 146.489 123.025 146.474 123.045C146.443 123.099 146.084 123.303 145.691 123.509C145.292 123.717 144.846 123.945 144.592 124.097C144.564 124.114 144.56 124.145 144.581 124.166C144.594 124.18 144.61 124.185 144.627 124.185C144.644 124.185 144.66 124.184 144.671 124.176C144.917 124.027 145.364 123.8 145.76 123.59C145.986 123.472 146.19 123.364 146.344 123.273C146.172 123.487 145.889 123.763 145.792 124.111C145.788 124.129 145.797 124.145 145.812 124.157C145.826 124.169 145.849 124.173 145.868 124.17C145.961 124.15 146.14 124.045 146.19 124.013C146.263 123.96 146.464 123.835 146.668 123.705C146.567 123.824 146.496 123.952 146.485 124.136C146.485 124.152 146.493 124.168 146.51 124.179C146.526 124.188 146.547 124.191 146.57 124.185C146.768 124.133 147.073 124.101 147.368 124.106C147.379 124.106 147.389 124.105 147.4 124.099C147.409 124.097 147.418 124.09 147.422 124.083C147.467 124.04 147.507 123.998 147.554 123.961C147.568 124.007 147.592 124.05 147.586 124.064L147.586 124.065C147.581 124.085 147.594 124.106 147.615 124.119C147.639 124.129 147.67 124.128 147.689 124.114C147.775 124.06 147.878 124.004 147.988 123.941C147.975 123.952 147.966 123.968 147.973 123.986C147.975 123.989 147.977 123.993 147.98 123.996C147.956 124.032 147.938 124.067 147.928 124.101C147.919 124.128 147.938 124.155 147.975 124.162C147.98 124.163 147.984 124.163 147.988 124.163C148.018 124.164 148.045 124.15 148.051 124.128C148.061 124.093 148.084 124.054 148.11 124.013C148.195 124.001 148.271 123.998 148.351 123.992C148.344 124 148.341 124.011 148.341 124.023C148.344 124.036 148.354 124.05 148.367 124.06C148.388 124.073 148.423 124.113 148.456 124.136C148.474 124.143 148.493 124.145 148.509 124.142C149.041 124.033 149.202 123.8 149.506 123.594C149.41 123.755 149.07 123.931 148.966 124.125C148.956 124.143 148.961 124.163 148.98 124.179C148.999 124.191 149.026 124.195 149.051 124.188C149.282 124.116 149.734 124.093 150.228 124.105C150.76 124.116 151.353 124.159 151.808 124.202C152.264 124.244 152.585 124.285 152.589 124.285H152.595C152.629 124.287 152.655 124.269 152.661 124.243C152.668 124.218 152.641 124.191 152.608 124.188Z" fill="#A5A5A5"/>
<path d="M147.67 123.66C147.677 123.661 147.681 123.66 147.687 123.659C147.721 123.654 147.742 123.629 147.737 123.6V123.599C147.737 123.586 147.741 123.576 147.77 123.559C147.801 123.544 147.808 123.513 147.788 123.49C147.767 123.468 147.726 123.463 147.698 123.478C147.646 123.504 147.606 123.546 147.606 123.595C147.606 123.601 147.606 123.61 147.611 123.622C147.617 123.644 147.642 123.659 147.67 123.66Z" fill="#A5A5A5"/>
</g>
</g>
<path d="M228.358 104.386C227.596 104.74 226.489 105.86 226.338 106.738C225.379 106.786 224.769 106.786 224.033 106.763L222.715 106.755C222.165 106.755 221.57 106.786 220.941 106.833C219.408 106.918 217.687 107.036 216.488 106.612L216.34 107.036C217.613 107.491 219.402 107.382 220.964 107.279C221.595 107.24 222.186 107.194 222.715 107.194L224.022 107.217C224.833 107.24 225.457 107.24 226.547 107.178L226.768 107.169L226.76 106.958C226.742 106.316 227.792 105.154 228.551 104.803C228.825 104.685 229.19 104.584 229.468 104.81C229.73 105.03 229.823 105.5 229.717 105.978L229.609 106.409L230.033 106.244C230.424 106.08 230.823 105.853 231.203 105.64C232.706 104.81 234.249 103.955 237.007 105.719C237.398 105.978 237.848 106.596 237.931 107.365C238.019 108.196 237.669 109.035 236.924 109.764C236.699 109.991 235.926 110.124 235.081 110.069C234.722 110.053 234.468 110.015 234.268 109.975C234.108 109.882 233.945 109.803 233.779 109.732L233.136 109.481L233.497 110.053C233.582 110.202 233.791 110.313 234.1 110.398C234.871 110.837 235.544 111.558 235.544 112.429C235.544 112.451 235.544 112.515 235.528 112.546C235.388 114.678 234.579 115.822 233.053 116.05C232.642 116.12 232.13 115.908 231.613 115.477C230.902 114.858 230.334 113.903 230.334 113.306H230.323C230.318 113.291 230.323 113.275 230.318 113.236L229.879 113.306C229.879 113.385 229.886 113.495 229.899 113.59C229.899 113.738 229.886 113.887 229.857 114.036C229.857 114.036 229.845 114.09 229.845 114.152C228.785 114.395 227.362 113.911 226.665 113.032C226.276 112.554 225.945 111.755 226.581 110.65L226.768 110.32L226.392 110.313C221.562 110.116 217.73 110.132 213.271 110.148L209.431 110.156V110.595H213.271C217.61 110.578 221.392 110.564 226.04 110.759C225.876 111.121 225.775 111.488 225.775 111.84C225.775 112.375 225.954 112.867 226.307 113.323C227.157 114.372 228.865 114.928 230.117 114.553L230.256 114.505C230.521 114.984 230.895 115.437 231.32 115.822C231.758 116.191 232.41 116.597 233.108 116.505C234.86 116.254 235.815 114.92 235.988 112.568V112.429C235.988 111.677 235.593 111.025 235.036 110.508C235.815 110.556 236.841 110.477 237.239 110.093C238.322 109.01 238.459 108 238.394 107.318C238.289 106.401 237.753 105.672 237.261 105.343C234.263 103.432 232.526 104.386 230.997 105.25C230.719 105.398 230.46 105.524 230.208 105.649C230.208 105.64 230.215 105.609 230.215 105.587C230.215 105.116 230.061 104.7 229.761 104.458C229.556 104.284 229.098 104.057 228.358 104.386Z" fill="black"/>
<path d="M232.904 117.584C232.145 117.584 231.38 117.266 230.635 116.637C230.307 116.341 230.019 116.028 229.773 115.706C228.205 115.893 226.44 115.177 225.482 113.994C224.968 113.331 224.712 112.612 224.712 111.841C224.712 111.818 224.712 111.797 224.713 111.774C221.674 111.668 219.079 111.652 216.714 111.652C215.596 111.652 214.465 111.656 213.293 111.66H208.366V109.092L213.361 109.082C214.547 109.078 215.687 109.073 216.816 109.073C219.583 109.073 222.663 109.095 226.434 109.248L228.568 109.295L227.507 111.175C227.148 111.797 227.299 112.123 227.492 112.36C227.771 112.713 228.29 112.994 228.815 113.102V112.398L231.274 112.004L231.296 112.24H231.386L231.399 113.306C231.41 113.507 231.742 114.176 232.312 114.674C232.683 114.984 232.89 114.997 232.89 114.997C233.357 114.927 234.315 114.785 234.466 112.477L234.474 112.348C234.43 112.028 234.127 111.666 233.673 111.383C233.377 111.29 232.854 111.076 232.571 110.58L230.506 107.317L234.165 108.739C234.342 108.814 234.493 108.885 234.63 108.957C234.752 108.977 234.912 108.995 235.126 109.004C235.256 109.012 235.36 109.016 235.461 109.016C235.874 109.016 236.139 108.962 236.252 108.929C236.592 108.573 236.934 108.064 236.873 107.475C236.824 107.019 236.539 106.688 236.42 106.607C235.523 106.035 234.737 105.751 234.03 105.751C233.206 105.751 232.518 106.131 231.722 106.57L231.653 106.609C231.268 106.825 230.869 107.048 230.444 107.226L228.078 108.149L228.608 106.029C228.255 106.327 227.898 106.769 227.825 106.984L227.868 108.199L226.583 108.242C225.566 108.301 224.856 108.307 223.991 108.281L222.695 108.259C222.323 108.259 221.875 108.288 221.399 108.319L221.029 108.342C220.402 108.384 219.614 108.435 218.853 108.435C217.649 108.435 216.738 108.31 215.982 108.039L214.987 107.683L215.836 105.253L216.841 105.607C217.304 105.771 217.958 105.85 218.842 105.85C219.448 105.85 220.087 105.814 220.705 105.778L220.882 105.769C221.596 105.715 222.184 105.689 222.715 105.689L224.04 105.696C224.604 105.714 225.047 105.717 225.59 105.702C226.122 104.671 227.184 103.757 227.91 103.419C228.873 102.991 229.802 103.099 230.447 103.643C230.605 103.771 230.745 103.927 230.863 104.104C231.693 103.649 232.719 103.166 234.024 103.166C235.238 103.166 236.484 103.584 237.833 104.444C238.698 105.023 239.326 106.099 239.451 107.197C239.54 108.121 239.355 109.483 237.991 110.848C237.72 111.11 237.353 111.301 236.892 111.423C237 111.749 237.053 112.087 237.053 112.429L237.05 112.647C236.78 116.298 234.839 117.333 233.258 117.56C233.134 117.577 233.019 117.584 232.904 117.584Z" fill="#BABABA"/>
<path d="M216.408 107.209C218.152 107.811 220.874 107.357 222.715 107.357C224.313 107.357 224.926 107.412 226.533 107.334C226.519 106.581 227.638 105.343 228.447 104.974C229.628 104.441 230.177 105.413 229.933 106.401C231.874 105.618 233.526 103.595 237.141 105.922C237.955 106.432 239.021 108.385 237.075 110.296C236.513 110.87 233.949 110.735 233.688 110.328C234.861 110.783 235.826 111.77 235.756 112.93C235.577 115.633 234.364 116.473 233.081 116.653C231.742 116.857 230.105 114.771 230.105 113.682C230.18 113.996 230.072 114.427 230.047 114.725C228.171 115.282 224.869 113.533 226.379 110.923C220.206 110.665 215.607 110.743 209.431 110.743" fill="white"/>
<path d="M232.889 116.935C232.264 116.935 231.686 116.56 231.296 116.224C230.868 115.855 230.493 115.386 230.231 114.916C230.202 114.946 230.162 114.968 230.12 114.98C228.845 115.361 227.112 114.787 226.262 113.705C225.675 112.96 225.573 112.073 225.957 111.172C221.183 110.983 217.327 110.991 212.882 111.004C211.775 111.006 210.632 111.009 209.431 111.009C209.283 111.009 209.164 110.891 209.164 110.744C209.164 110.596 209.283 110.477 209.431 110.477C210.632 110.477 211.774 110.474 212.88 110.471C217.457 110.459 221.412 110.449 226.391 110.657C226.483 110.661 226.568 110.713 226.613 110.795C226.657 110.876 226.657 110.976 226.609 111.057C225.994 112.118 226.308 112.903 226.679 113.375C227.359 114.239 228.753 114.735 229.803 114.512C229.807 114.479 229.813 114.445 229.817 114.411C229.839 114.262 229.863 114.1 229.864 113.958C229.849 113.862 229.839 113.77 229.839 113.682C229.839 113.547 229.939 113.434 230.075 113.417C230.211 113.401 230.332 113.488 230.364 113.619C230.386 113.715 230.396 113.814 230.397 113.914C230.515 114.491 231.03 115.292 231.644 115.82C232.142 116.249 232.634 116.454 233.041 116.389C234.549 116.179 235.35 115.041 235.492 112.913C235.543 112.016 234.883 111.262 234.089 110.812C233.767 110.732 233.557 110.618 233.464 110.472C233.402 110.375 233.409 110.248 233.481 110.159C233.554 110.07 233.679 110.038 233.783 110.08C233.952 110.144 234.119 110.222 234.283 110.311C234.551 110.369 234.939 110.424 235.435 110.414C236.237 110.407 236.74 110.256 236.885 110.109C237.636 109.372 237.984 108.553 237.896 107.737C237.813 106.978 237.373 106.382 237 106.147C234.257 104.381 232.722 105.227 231.238 106.045C230.849 106.26 230.444 106.482 230.032 106.648C229.939 106.686 229.834 106.668 229.758 106.602C229.682 106.536 229.651 106.435 229.675 106.337C229.788 105.875 229.698 105.426 229.451 105.219C229.19 105 228.82 105.098 228.556 105.216C227.821 105.553 226.787 106.703 226.798 107.329C226.801 107.473 226.689 107.593 226.546 107.6C225.442 107.653 224.805 107.646 223.998 107.634C223.627 107.629 223.221 107.624 222.715 107.624C222.195 107.624 221.604 107.66 220.978 107.699C219.403 107.797 217.615 107.908 216.322 107.46C216.182 107.413 216.108 107.262 216.156 107.123C216.204 106.982 216.355 106.907 216.495 106.958C217.689 107.37 219.42 107.262 220.946 107.168C221.58 107.129 222.179 107.091 222.715 107.091C223.222 107.091 223.631 107.096 224.004 107.101C224.745 107.112 225.34 107.119 226.294 107.078C226.477 106.195 227.583 105.076 228.336 104.731C229.106 104.384 229.577 104.631 229.791 104.81C230.094 105.063 230.259 105.488 230.256 105.964C230.494 105.847 230.733 105.716 230.98 105.578C232.526 104.727 234.276 103.762 237.285 105.697C237.778 106.005 238.323 106.74 238.425 107.68C238.498 108.366 238.358 109.41 237.261 110.486C236.866 110.889 235.889 110.967 235.151 110.943C235.698 111.47 236.068 112.159 236.022 112.945C235.863 115.333 234.888 116.668 233.118 116.917C233.041 116.929 232.964 116.935 232.889 116.935Z" fill="#BABABA"/>
<path d="M238.075 132.24L187.174 129.571C196.89 129.653 210.449 129.618 207.456 128.143C203.48 126.96 184.646 126.615 179.997 126.248C180.041 126.225 169.287 126.205 169.332 126.182C164.878 123.187 175.553 125.116 169.595 125.178C152.478 125.358 124.176 123.596 107.075 123.775C102.26 123.825 98.3839 124.245 94.8495 124.73L81.4182 124.026C66.4891 124.174 75.5253 124.018 60.6138 124.37C56.4564 124.457 20.0347 123.21 17.8416 126.196C33.021 129.936 40.5469 124.97 66.1039 128.203C54.4338 129.286 39.1947 126.182 28.5619 130.648C35.1104 132.718 41.4419 132.475 48.3451 132.522C55.7713 132.585 62.6444 133.995 70.1644 133.964C89.6619 133.869 109.159 133.549 128.662 133.359C165.126 132.992 264.809 135.242 238.075 132.24Z" fill="black"/>
<path d="M120.873 28.2424C120.873 28.2424 100.69 45.7518 97.8988 64.4694C95.1047 83.1859 132.981 76.8443 132.981 76.8443L141.051 36.393L120.873 28.2424Z" fill="black"/>
<path d="M121.649 29.6682C121.649 29.6682 103.889 45.4067 101.429 62.2258C98.966 79.0549 132.3 73.3564 132.3 73.3564L139.409 36.9959L121.649 29.6682Z" fill="white"/>
<mask id="mask1_94_6287" style="mask-type:luminance" maskUnits="userSpaceOnUse" x="100" y="44" width="31" height="15">
<path d="M100.411 44.6743H130.525V58.7545H100.411V44.6743Z" fill="white"/>
</mask>
<g mask="url(#mask1_94_6287)">
<path d="M110.817 48.2246C110.817 48.2246 112.791 48.7105 113.904 48.7105H115.013C115.013 48.7105 114.775 51.6484 116.363 53.0022C119.166 55.3935 126.117 53.2334 126.117 53.2334L125.517 55.6933H100.41L100.82 58.6223L128.076 58.7545L130.525 49.866L119.322 44.9831L113.406 44.6743L110.817 48.2246Z" fill="#BABABA"/>
</g>
<path d="M201.988 61.051C201.988 61.051 203.582 60.5259 204.831 62.1097C206.077 63.7008 210.694 71.6438 205.903 72.8785" fill="black"/>
<path d="M193.443 113.502L218.678 114.921L217.865 104.528L187.747 104.049L193.443 113.502Z" fill="black"/>
<path d="M195.393 110.986L215.578 111.762L214.936 106.096L190.837 105.845L195.393 110.986Z" fill="#CDCDCD"/>
<path d="M201.249 109.271C201.249 109.271 76.2324 109.7 71.6357 109.137C67.0397 108.573 8.83469 109.137 5.76825 102.92C2.70789 96.6821 1.17969 64.0298 1.17969 64.0298L13.1074 59.727C13.1074 59.727 29.7661 46.0184 62.1375 43.6544C63.515 43.5571 83.5343 49.8046 83.5343 49.8046L89.2497 56.8927L183.961 56.5128L195.363 56.4503C195.363 56.4503 202.086 59.3357 203.949 63.7989C204.756 65.747 205.651 67.8351 206.52 70.2484C206.649 70.6132 206.773 71.1229 206.898 71.4869C211.814 85.6154 215.642 104.975 201.071 107.922" fill="black"/>
<path d="M59.7419 44.4695L86.5035 22.4418L96.1292 27.3403L85.1823 50.1256L90.1909 55.9416C90.1909 55.9416 84.9851 64.0298 59.7419 44.4695Z" fill="black"/>
<path d="M87.0653 25.3616L63.2212 45.5557C63.2212 45.5557 71.377 52.9314 75.9211 55.9414C80.4665 58.9504 86.8673 57.3602 86.8673 57.3602L78.2974 57.8336L93.0582 28.909L87.0653 25.3616Z" fill="white"/>
<path d="M12.6364 61.6121L5.49658 66.8115L7.39908 91.3906L32.4876 92.623L66.8329 104.153L176.923 103.149C176.923 103.149 209.58 105.336 209.166 100.82C205.345 59.7271 195.363 59.2529 195.363 59.2529C195.363 59.2529 111.248 59.523 107.712 59.523C104.181 59.523 75.921 60.6671 75.921 60.6671L61.2556 47.4807C61.2556 47.4807 34.9942 48.8557 13.1074 61.6121" fill="#D5C197"/>
<path d="M8.54265 59.5933C6.49588 60.7928 4.22914 62.2391 1.68921 63.9746C1.68921 63.9746 1.68921 67.7523 2.26814 71.5155C2.8566 75.3796 4.03696 79.2429 6.44162 79.1027C14.5323 78.624 29.1649 60.6128 27.8617 58.7792C26.6938 57.1413 25.7726 49.5137 8.54265 59.5933Z" fill="black"/>
<path d="M4.44068 65.4015C4.44068 65.4015 3.11605 80.5126 9.76963 75.2069C14.4193 71.4987 22.405 63.9202 23.5821 62.5568C26.436 59.2528 23.5273 52.3121 4.44068 65.4015Z" fill="white"/>
<path d="M80.0224 60.2682C80.0224 60.2682 49.7455 63.5043 38.8099 63.5043C27.8619 63.5043 37.8559 62.0853 37.8559 62.0853C37.8559 62.0853 63.0736 58.7792 69.7372 58.7792C76.3961 58.7792 64.3974 50.9293 64.3974 50.9293L59.2691 46.9655L60.6938 44.1291L61.1695 46.4886H64.0271L80.0224 60.2682Z" fill="black"/>
<path d="M0.162063 93.0309C0.162063 93.0309 5.0193 89.0247 26.436 92.026C45.9284 94.7616 116.824 92.026 116.824 92.026L214.881 92.8021C214.881 92.8021 211.157 105.445 209.629 107.451C208.124 109.457 189.039 110.587 189.039 110.587L8.24563 108.573C8.24563 108.573 -1.35237 105.58 0.162063 93.0309Z" fill="black"/>
<path d="M4.07294 94.7001L38.3367 95.1696L39.7569 106.025L8.82853 105.092C8.82853 105.092 2.1633 101.315 4.07294 94.7001Z" fill="#D5C197"/>
<path d="M83.5343 96.1016H146.819L144.921 106.512L80.1995 106.025L83.5343 96.1016Z" fill="#D5C197"/>
<path d="M186.72 96.5091L201.223 95.6399L210.11 96.0712C210.11 96.0712 209.171 105.695 206.374 106.582C203.555 107.452 182.034 107.452 182.034 107.452L186.72 96.5091Z" fill="#D5C197"/>
<mask id="mask2_94_6287" style="mask-type:luminance" maskUnits="userSpaceOnUse" x="4" y="101" width="208" height="10">
<path d="M4.53931 101.315H211.058V110.289H4.53931V101.315Z" fill="white"/>
</mask>
<g mask="url(#mask2_94_6287)">
<g opacity="0.229996">
<path d="M4.53833 103.673H15.0091L42.1372 103.212L101.623 105.092H152.052C152.052 105.092 202.023 106.025 204.395 105.092C206.784 104.153 211.059 101.315 211.059 101.315L209.629 107.452C209.629 107.452 195.836 110.289 192.983 110.289C190.121 110.289 12.6365 107.922 12.6365 107.922L4.53833 105.092" fill="black"/>
</g>
</g>
<path d="M154.448 104.685C154.448 113.095 161.323 119.921 169.8 119.921C178.278 119.921 185.161 113.095 185.161 104.685C185.161 96.2511 178.278 89.4324 169.8 89.4324C161.323 89.4324 154.448 96.2511 154.448 104.685Z" fill="url(#paint0_linear_94_6287)"/>
<path d="M157.518 104.685C157.518 97.9277 163.022 92.4739 169.799 92.4739C176.596 92.4739 182.083 97.9277 182.083 104.685C182.083 111.417 176.596 116.88 169.799 116.88C163.022 116.88 157.518 111.417 157.518 104.685Z" fill="white"/>
<path d="M157.518 104.685C157.518 97.9277 163.022 92.4739 169.799 92.4739C176.596 92.4739 182.083 97.9277 182.083 104.685C182.083 111.417 176.596 116.88 169.799 116.88C163.022 116.88 157.518 111.417 157.518 104.685Z" fill="white"/>
<path d="M102.573 66.3375C102.573 66.3375 102.781 66.0072 103.428 65.9577C106.703 65.7109 115.589 66.1098 116.369 67.2741C117.322 68.701 114.078 69.6537 107.889 70.1269C105.467 70.3082 100.668 68.701 102.573 66.3375Z" fill="black"/>
<path d="M133.759 58.402C133.759 58.402 133.931 80.4265 132.373 83.2401C129.741 87.9347 111.272 93.7578 110.66 98.0063C109.7 104.614 112.082 107.452 112.082 107.452L109.227 106.981C109.227 106.981 107.33 96.1017 109.7 94.2217C112.082 92.3248 130.642 84.7606 131.127 81.9327C131.591 79.1026 132.554 58.3081 132.554 58.3081L133.759 58.402Z" fill="black"/>
<mask id="mask3_94_6287" style="mask-type:luminance" maskUnits="userSpaceOnUse" x="4" y="50" width="85" height="44">
<path d="M4.75122 50.7436H88.1758V93.7463H4.75122V50.7436Z" fill="white"/>
</mask>
<g mask="url(#mask3_94_6287)">
<g opacity="0.100006">
<path d="M32.6274 55.4706C32.6274 55.4706 28.814 62.0855 28.3351 63.5043C27.8618 64.9227 20.7246 79.5641 6.44141 78.6239C3.40515 78.4359 5.01911 91.8624 6.92425 91.8624C8.16947 91.8624 34.5209 96.1016 33.0989 91.8624C30.8213 85.0662 44.5689 74.5713 47.8408 73.4348C57.3565 70.116 69.2519 72.4784 74.965 75.3241C80.6836 78.1539 85.4386 85.709 85.4386 85.709C85.4386 85.709 88.7656 72.9532 82.5908 71.0676C76.396 69.1784 95.4363 55.9414 84.9698 58.3083C74.5017 60.6671 38.3365 61.6121 38.3365 61.6121L39.2723 60.6671L75.4423 58.7791L65.9348 50.7436L32.6274 55.4706Z" fill="#5C5C5C"/>
</g>
</g>
<mask id="mask4_94_6287" style="mask-type:luminance" maskUnits="userSpaceOnUse" x="91" y="56" width="120" height="38">
<path d="M91.625 56.2995H210.111V93.265H91.625V56.2995Z" fill="white"/>
</mask>
<g mask="url(#mask4_94_6287)">
<g opacity="0.229996">
<path d="M94.004 58.7791L91.6248 60.6671C91.6248 60.6671 178.714 61.6121 184.889 61.6121C191.083 61.6121 198.215 64.4445 200.124 70.116C202.023 75.7943 206.784 90.906 206.784 90.906H188.701V92.8021L210.11 93.265C210.11 93.265 209.629 74.3674 201.072 64.4445C192.506 54.5232 195.363 56.4504 195.363 56.4504L94.004 58.7791Z" fill="#5C5C5C"/>
</g>
</g>
<path d="M113.757 67.7015C113.757 67.7015 105.972 66.5224 104.266 67.5371C102.632 68.5023 108.311 69.8307 113.057 68.2831C113.928 67.9989 113.757 67.7015 113.757 67.7015Z" fill="#D5C197"/>
<mask id="mask5_94_6287" style="mask-type:luminance" maskUnits="userSpaceOnUse" x="106" y="58" width="28" height="50">
<path d="M106.907 58.7457H133.931V107.538H106.907V58.7457Z" fill="white"/>
</mask>
<g mask="url(#mask5_94_6287)">
<g opacity="0.229996">
<path d="M129.424 58.9198V78.3966C129.424 84.2581 119.875 86.1638 115.013 88.9154C113.893 89.5495 108.984 90.349 108.233 92.0259C105.728 97.6072 107.539 106.512 107.539 106.512L109.628 107.538L109.975 95.8121C109.975 95.8121 130.802 85.3012 132.373 82.1899C133.931 79.0943 133.931 58.7456 133.931 58.7456L129.424 58.9198Z" fill="#5C5C5C"/>
</g>
</g>
<path d="M83.4673 49.3726L75.9211 59.7271L88.2899 58.7792L94.004 51.2184C94.004 51.2184 98.5857 50.7794 103.417 51.2147C108.233 51.6463 114.31 48.8637 112.058 43.1339C109.792 37.4126 94.5821 39.3405 94.5821 39.3405C94.5821 39.3405 86.1139 41.0649 83.4673 49.3726Z" fill="black"/>
<path d="M94.0928 42.2957C94.0928 42.2957 90.0655 44.2632 88.3324 46.8374C86.3004 49.8703 79.8682 59.2876 79.8682 59.2876L86.3004 58.7864L92.2303 49.8703C92.2303 49.8703 102.903 49.7032 105.62 49.5301C108.326 49.3655 110.904 46.4295 110.356 44.1455C109.682 41.285 101.37 39.9357 94.0928 42.2957Z" fill="#D5C197"/>
<mask id="mask6_94_6287" style="mask-type:luminance" maskUnits="userSpaceOnUse" x="83" y="45" width="27" height="15">
<path d="M83.252 45.6654H109.729V59.1237H83.252V45.6654Z" fill="white"/>
</mask>
<g mask="url(#mask6_94_6287)">
<g opacity="0.229996">
<path d="M92.4043 45.6655C92.4043 45.6655 93.0105 47.735 95.709 47.8996C98.4281 48.0722 109.728 48.3323 109.728 48.3323C109.728 48.3323 108.83 50.3768 105.948 50.3768C103.079 50.3768 92.6785 50.4704 92.6785 50.4704L87.5563 59.0316L83.2507 59.1238L92.4043 45.6655Z" fill="#5C5C5C"/>
</g>
</g>
<path d="M163.268 56.8985C163.268 56.8985 167.316 35.3278 168.828 35.8304C170.343 36.3306 173.246 35.2806 174.89 38.8343C176.523 42.3973 175.393 58.402 175.393 58.402L163.268 56.8985Z" fill="black"/>
<path d="M172.868 44.3565C172.868 44.3565 193.602 53.9897 195.363 56.4505C197.11 58.9006 170.844 57.8968 170.844 57.8968L172.868 44.3565Z" fill="black"/>
<mask id="mask7_94_6287" style="mask-type:luminance" maskUnits="userSpaceOnUse" x="128" y="55" width="19" height="9">
<path d="M128.64 55.7105H146.228V63.496H128.64V55.7105Z" fill="white"/>
</mask>
<g mask="url(#mask7_94_6287)">
<g opacity="0.350006">
<path d="M129.27 57.5991C129.27 57.5991 126.79 61.9483 131.666 62.9246C146.195 65.8278 146.227 56.7638 146.227 55.964C146.227 55.1568 141.133 56.5358 141.133 56.5358L129.27 57.5991Z" fill="black"/>
</g>
</g>
<path d="M136.737 47.9727C136.737 47.9727 132.704 48.6124 129.822 50.5952C128.859 51.2587 127.93 52.0452 127.473 53.1193C126.227 56.027 126.327 60.2909 132.337 60.9533C137.163 61.4901 144.898 59.6011 145.912 56.5294C146.946 53.4215 146.09 47.8052 136.737 47.9727Z" fill="black"/>
<path d="M135.343 49.6786C128.732 51.4897 127.234 55.5919 129.118 57.7277C131.127 59.9856 133.211 59.3974 136.595 59.2007C139.992 59.0141 145.006 57.8621 144.85 54.7258C144.698 51.5435 141.544 47.9773 135.343 49.6786Z" fill="white"/>
<path d="M139.415 52.7829C139.415 52.7829 139.564 53.3939 139.729 53.7611C140.392 55.2482 141.721 58.6222 138.68 59.1388C134.871 59.7901 139.782 59.6062 139.782 59.6062C139.782 59.6062 140.732 59.296 141.623 59.2401C141.912 59.2255 142.152 58.1673 141.999 57.23C141.65 54.9529 140.285 52.7272 140.285 52.7272C140.285 52.7272 139.666 51.6462 139.415 52.7829Z" fill="black"/>
<path d="M133.485 56.4309C133.596 54.6988 133.851 53.4447 133.544 53.4643C133.222 53.48 132.521 54.3185 132.332 55.5174C132.127 56.8595 132.26 57.8533 132.545 58.4959C132.826 59.1265 132.661 59.1154 132.218 59.1387C131.792 59.1621 130.802 59.1867 130.802 59.1867C130.802 59.1867 131.727 59.7307 132.856 59.8555C134.247 60.0095 135.88 59.7537 135.94 59.6851C136.056 59.5706 134.849 59.2806 134.833 59.2875C134.833 59.2875 133.265 59.6397 133.485 56.4309Z" fill="black"/>
<path d="M139.069 47.8871C139.069 47.8871 139.649 49.1839 140.72 49.7175C141.783 50.2509 143.104 50.56 144.077 52.187C145.039 53.8176 143.63 50.6512 143.63 50.6512C143.63 50.6512 141.202 49.1296 140.821 48.9334C140.439 48.746 139.069 47.8871 139.069 47.8871Z" fill="black"/>
<path d="M132.235 50.8148C132.235 50.8148 133.025 49.8902 136.184 49.5527C139.35 49.2238 139.675 49.6315 140.886 49.8197C141.68 49.9482 143.769 49.271 142.069 48.7214C139.069 47.7663 138.162 47.7261 135.858 47.9548C131.513 48.3848 128.52 51.0028 127.84 52.4016C127.147 53.802 132.235 50.8148 132.235 50.8148Z" fill="black"/>
<mask id="mask8_94_6287" style="mask-type:luminance" maskUnits="userSpaceOnUse" x="72" y="24" width="23" height="35">
<path d="M72.5789 24.0099H94.3384V58.3905H72.5789V24.0099Z" fill="white"/>
</mask>
<g mask="url(#mask8_94_6287)">
<g opacity="0.339996">
<path d="M86.8993 24.0099L85.5469 25.0761L91.3738 29.9348L77.1208 54.2072L72.5793 54.3739L77.6931 58.3905L82.8185 51.9593L94.3386 28.5956L86.8993 24.0099Z" fill="black"/>
</g>
</g>
<mask id="mask9_94_6287" style="mask-type:luminance" maskUnits="userSpaceOnUse" x="3" y="57" width="24" height="21">
<path d="M3.81934 57.3132H26.7356V77.6759H3.81934V57.3132Z" fill="white"/>
</mask>
<g mask="url(#mask9_94_6287)">
<g opacity="0.119995">
<path d="M26.7368 59.993L23.7763 57.8532L21.6141 57.3132C21.6141 57.3132 22.9406 61.5686 20.2707 63.7397C6.51375 74.9875 4.09692 73.3813 4.09692 73.3813L3.82056 77.3936L8.4099 77.6759L18.9214 69.9008L26.7368 59.993Z" fill="black"/>
</g>
</g>
<path d="M39.1384 72.8784C39.1384 74.7831 37.5123 76.3343 35.5042 76.3343H33.0783C31.0631 76.3343 29.4255 74.7831 29.4255 72.8784C29.4255 70.978 31.0631 69.4294 33.0783 69.4294H35.5042C37.5123 69.4294 39.1384 70.978 39.1384 72.8784Z" fill="black"/>
<path d="M37.674 72.8199C37.674 74.0931 36.5346 75.1243 35.1332 75.1243H33.4354C32.0446 75.1243 30.9058 74.0931 30.9058 72.8199C30.9058 71.5618 32.0446 70.5309 33.4354 70.5309H35.1332C36.5346 70.5309 37.674 71.5618 37.674 72.8199Z" fill="white"/>
<mask id="mask10_94_6287" style="mask-type:luminance" maskUnits="userSpaceOnUse" x="31" y="69" width="8" height="7">
<path d="M31.061 69.7748H38.6583V75.7241H31.061V69.7748Z" fill="white"/>
</mask>
<g mask="url(#mask10_94_6287)">
<g opacity="0.229996">
<path d="M38.6581 71.6511L36.2447 70.0765L34.9632 69.7748C34.9632 69.7748 37.0825 71.9422 36.1499 73.2472C34.9632 74.9318 31.061 74.2428 31.061 74.2428L31.3562 75.0264L33.5557 75.7241L37.2522 75.3318L38.6581 71.6511Z" fill="black"/>
</g>
</g>
<mask id="mask11_94_6287" style="mask-type:luminance" maskUnits="userSpaceOnUse" x="165" y="37" width="26" height="20">
<path d="M165.226 37.5928H190.504V56.8194H165.226V37.5928Z" fill="white"/>
</mask>
<g mask="url(#mask11_94_6287)">
<g opacity="0.5">
<path d="M165.225 56.8194H190.503C190.503 56.8194 187.463 52.7196 183.331 51.1211C179.218 49.5136 178.669 49.3408 178.144 49.3408C177.593 49.3408 176.523 48.8006 176.523 48.8006L171.867 54.1462V53.7855C171.867 53.7855 174.554 42.574 173.837 40.799C173.119 39.0121 172.221 38.8345 172.221 38.8345L170.079 37.5928C170.079 37.5928 167.921 44.0041 166.849 48.8006C165.769 53.6126 165.225 56.8194 165.225 56.8194Z" fill="#C3BEBA"/>
</g>
</g>
<mask id="mask12_94_6287" style="mask-type:luminance" maskUnits="userSpaceOnUse" x="165" y="37" width="26" height="20">
<path d="M165.226 37.5928H190.504V56.8194H165.226V37.5928Z" fill="white"/>
</mask>
<g mask="url(#mask12_94_6287)">
<g opacity="0.100006">
<path d="M165.225 56.8194H190.503C190.503 56.8194 187.463 52.7196 183.331 51.1211C179.218 49.5136 178.669 49.3408 178.144 49.3408C177.593 49.3408 176.523 48.8006 176.523 48.8006L171.867 54.1462V53.7855C171.867 53.7855 174.554 42.574 173.837 40.799C173.119 39.0121 172.221 38.8345 172.221 38.8345L170.079 37.5928C170.079 37.5928 167.921 44.0041 166.849 48.8006C165.769 53.6126 165.225 56.8194 165.225 56.8194Z" fill="#C3BEBA"/>
</g>
</g>
<path d="M40.4005 79.1646C40.4005 79.1646 34.5405 82.6531 31.7303 88.4674C28.9101 94.2916 27.978 97.0901 27.978 97.0901L31.9644 97.3173L34.5405 97.5519L43.4392 84.7605L54.2181 81.9546V75.2069C54.2181 75.2069 52.1175 72.4155 40.4005 79.1646Z" fill="#D5C197"/>
<path d="M39.5858 80.1058C42.9455 77.1976 42.1448 76.9855 42.1448 76.9855C42.1448 76.9855 36.9678 79.1733 32.3514 86.8854C27.7351 94.581 26.8184 99.7067 26.8184 99.7067C26.8184 99.7067 27.5521 100.452 27.9254 99.7067C28.2899 98.9782 29.416 94.99 34.1962 87.072C36.4203 83.4051 38.6397 80.9287 39.5858 80.1058Z" fill="black"/>
<path d="M201.988 61.051C201.988 61.051 197.413 62.5214 197.641 63.5279C197.87 64.5355 201.198 72.3499 202.078 73.1179C202.944 73.8909 203.344 73.7485 204.024 73.6549C204.722 73.5447 207.381 72.6834 207.381 72.6834L201.988 61.051Z" fill="black"/>
<path d="M206.202 69.9521C206.202 69.9521 203.493 71.7422 203.01 71.123C202.542 70.4956 199.841 64.5784 200.126 64.3427C200.423 64.1076 203.072 62.8466 203.072 62.8466C203.072 62.8466 205.471 65.4478 206.202 69.9521Z" fill="white"/>
<mask id="mask13_94_6287" style="mask-type:luminance" maskUnits="userSpaceOnUse" x="72" y="80" width="139" height="15">
<path d="M72.9441 80.2944H210.111V94.2444H72.9441V80.2944Z" fill="white"/>
</mask>
<g mask="url(#mask13_94_6287)">
<g opacity="0.199997">
<path d="M208.207 80.2943L210.11 93.2649L82.3363 94.2444L72.9451 80.4881L208.207 80.2943Z" fill="black"/>
</g>
</g>
<path d="M142.849 103.941C142.849 89.1883 154.896 77.2134 169.769 77.2134C184.644 77.2134 196.702 89.1883 196.702 103.941C196.702 118.723 184.644 130.69 169.769 130.69C154.896 130.69 142.849 118.723 142.849 103.941Z" fill="black"/>
<path d="M154.419 103.941C154.419 112.382 161.291 119.216 169.77 119.216C178.255 119.216 185.133 112.382 185.133 103.941C185.133 95.5301 178.255 88.7023 169.77 88.7023C161.291 88.7023 154.419 95.5301 154.419 103.941Z" fill="url(#paint1_linear_94_6287)"/>
<mask id="mask14_94_6287" style="mask-type:luminance" maskUnits="userSpaceOnUse" x="152" y="86" width="36" height="36">
<path d="M152.313 86.6182H187.237V121.285H152.313V86.6182Z" fill="white"/>
</mask>
<g mask="url(#mask14_94_6287)">
<g opacity="0.199997">
<path d="M152.314 103.941C152.314 94.3853 160.128 86.6183 169.769 86.6183C179.418 86.6183 187.237 94.3853 187.237 103.941C187.237 113.542 179.418 121.285 169.769 121.285C160.128 121.285 152.314 113.542 152.314 103.941Z" fill="#CDCDCD"/>
</g>
</g>
<path d="M157.488 103.941C157.488 97.2225 162.995 91.7594 169.769 91.7594C176.562 91.7594 182.059 97.2225 182.059 103.941C182.059 110.68 176.562 116.143 169.769 116.143C162.995 116.143 157.488 110.68 157.488 103.941Z" fill="white"/>
<path d="M33.2119 103.941C33.2119 89.1883 45.2665 77.2134 60.1487 77.2134C75.0068 77.2134 87.065 89.1883 87.065 103.941C87.065 118.723 75.0068 130.69 60.1487 130.69C45.2665 130.69 33.2119 118.723 33.2119 103.941Z" fill="black"/>
<path d="M44.7815 103.941C44.7815 112.382 51.6561 119.216 60.1487 119.216C68.6166 119.216 75.4931 112.382 75.4931 103.941C75.4931 95.5301 68.6166 88.7023 60.1487 88.7023C51.6561 88.7023 44.7815 95.5301 44.7815 103.941Z" fill="url(#paint2_linear_94_6287)"/>
<mask id="mask15_94_6287" style="mask-type:luminance" maskUnits="userSpaceOnUse" x="42" y="86" width="36" height="36">
<path d="M42.6741 86.6182H77.5978V121.285H42.6741V86.6182Z" fill="white"/>
</mask>
<g mask="url(#mask15_94_6287)">
<g opacity="0.199997">
<path d="M42.675 103.941C42.675 94.3853 50.496 86.6183 60.1488 86.6183C69.7772 86.6183 77.5987 94.3853 77.5987 103.941C77.5987 113.542 69.7772 121.285 60.1488 121.285C50.496 121.285 42.675 113.542 42.675 103.941Z" fill="#CDCDCD"/>
</g>
</g>
<path d="M47.8516 103.941C47.8516 97.2225 53.3521 91.7593 60.1488 91.7593C66.9194 91.7593 72.4292 97.2225 72.4292 103.941C72.4292 110.68 66.9194 116.143 60.1488 116.143C53.3521 116.143 47.8516 110.68 47.8516 103.941Z" fill="white"/>
<mask id="mask16_94_6287" style="mask-type:luminance" maskUnits="userSpaceOnUse" x="4" y="80" width="34" height="15">
<path d="M4.9895 80.6615H37.9305V94.1819H4.9895V80.6615Z" fill="white"/>
</mask>
<g mask="url(#mask16_94_6287)">
<g opacity="0.199997">
<path d="M37.9312 80.6616L28.7885 94.1817L5.15674 93.6725L4.99023 80.8337L37.9312 80.6616Z" fill="black"/>
</g>
</g>
<mask id="mask17_94_6287" style="mask-type:luminance" maskUnits="userSpaceOnUse" x="97" y="40" width="14" height="9">
<path d="M97.6816 40.8841H110.788V48.1656H97.6816V40.8841Z" fill="white"/>
</mask>
<g mask="url(#mask17_94_6287)">
<g opacity="0.339996">
<path d="M97.6807 40.8925C97.6807 40.8925 100.715 45.6778 105.004 46.9198C109.291 48.1656 110.187 48.1656 110.187 48.1656C110.187 48.1656 111.257 47.8051 110.543 45.6778C109.828 43.5452 105.902 40.708 97.6807 40.8925Z" fill="black"/>
</g>
</g>
<path d="M110.673 33.8C110.673 33.8 114.334 35.606 116.493 38.3525C117.206 39.2703 117.857 40.2969 117.976 41.4641C118.288 44.6067 116.902 48.6397 110.969 47.4911C106.217 46.5786 99.3962 42.4833 99.3551 39.2514C99.2924 35.9853 101.801 30.8758 110.673 33.8Z" fill="black"/>
<path d="M111.493 35.844C117.258 39.5287 117.458 43.8862 115.013 45.3677C112.431 46.9357 110.624 45.7518 107.443 44.5608C104.254 43.3804 99.8201 40.799 100.906 37.8513C102.014 34.8569 106.091 32.3813 111.493 35.844Z" fill="white"/>
<path d="M106.679 37.5958C106.679 37.5958 106.361 38.1414 106.091 38.4383C105.004 39.6699 102.714 42.4914 105.467 43.886C108.904 45.6343 104.283 44.0043 104.283 44.0043C104.283 44.0043 103.459 43.4243 102.631 43.1144C102.357 43.0097 102.462 41.9308 102.866 41.0806C103.882 39.0119 105.867 37.2947 105.867 37.2947C105.867 37.2947 106.777 36.4396 106.679 37.5958Z" fill="black"/>
<path d="M111.24 42.8442C111.654 41.1466 111.794 39.8813 112.078 39.9911C112.383 40.1011 112.791 41.1039 112.618 42.3111C112.413 43.6506 111.987 44.5609 111.512 45.0863C111.05 45.6026 111.228 45.6506 111.631 45.7993C112.034 45.951 112.979 46.2606 112.979 46.2606C112.979 46.2606 111.933 46.5042 110.817 46.2964C109.436 46.0408 107.956 45.3052 107.912 45.2191C107.842 45.0704 109.08 45.1536 109.093 45.1637C109.097 45.1724 110.479 45.964 111.24 42.8442Z" fill="black"/>
<path d="M108.487 33.031C108.487 33.031 107.532 34.0929 106.361 34.2891C105.174 34.4805 103.824 34.3957 102.401 35.6492C100.999 36.9187 103.29 34.3156 103.29 34.3156C103.29 34.3156 106.074 33.5803 106.493 33.5169C106.911 33.4456 108.487 33.031 108.487 33.031Z" fill="black"/>
<path d="M114.116 37.8512C114.116 37.8512 113.655 36.7304 110.736 35.4766C107.811 34.2224 107.386 34.5124 106.16 34.3401C105.365 34.2224 103.577 32.9601 105.365 32.9445C108.518 32.9095 109.382 33.1494 111.512 34.0419C115.541 35.7424 117.601 39.1278 117.842 40.6733C118.08 42.2047 114.116 37.8512 114.116 37.8512Z" fill="black"/>
<path d="M125.868 14.2909C125.868 14.2909 123.439 10.6686 125.43 6.90702C127.423 3.16032 131.148 -1.08712 135.771 0.252616C140.383 1.59288 141.624 3.34827 144.243 3.96035C146.875 4.57137 149.389 3.81482 149.861 3.52163C150.316 3.21546 150.986 3.34827 150.986 3.34827C150.986 3.34827 151.694 7.22883 148.245 9.22624C145.396 10.8812 144.545 9.3951 139.766 10.1832C136.839 10.6654 138.252 12.7304 138.252 12.7304" fill="black"/>
<path d="M150.186 20.702C150.186 20.702 157.831 18.8292 157.432 21.2985C157.039 23.7675 155.345 27.8657 155.345 27.8657L150.608 30.2793L149.408 28.8096L150.186 20.702Z" fill="white"/>
<path d="M136.973 18.0838C136.973 18.0838 137.011 23.4297 135.331 25.0513C133.635 26.6821 130.459 30.1547 130.459 30.1547L130.035 31.4093C130.035 31.4093 123.553 29.2531 120.795 31.4867C118.032 33.7293 117.128 35.0139 117.128 35.0139L116.284 35.0773C116.284 35.0773 115.867 33.2819 119.932 23.5077C124.001 13.7346 123.695 17.5987 123.695 17.5987L134.128 12.2599L140.834 13.5381L136.973 18.0838Z" fill="#E2E2E2"/>
<path d="M141.39 32.0596C141.39 32.0596 143.193 33.2265 143.419 34.3004C143.63 35.3745 143.805 33.5873 143.09 32.8814C141.155 30.9778 139.915 30.9624 139.555 31.219C139.187 31.4709 140.087 31.2124 141.39 32.0596Z" fill="white"/>
<path d="M130.807 29.4497C129.528 31.3917 126.852 31.9033 124.843 30.5932C122.838 29.2805 122.253 26.64 123.542 24.6911C124.834 22.756 127.499 22.2465 129.516 23.5547C131.513 24.8719 132.101 27.5132 130.807 29.4497Z" fill="#D5D5D5"/>
<path d="M128.645 29.4658C127.878 30.6248 126.303 30.9381 125.115 30.1548C123.923 29.3871 123.586 27.8189 124.358 26.6493C125.115 25.4999 126.703 25.194 127.895 25.9606C129.082 26.7371 129.424 28.3125 128.645 29.4658Z" fill="black"/>
<path d="M125.188 26.5338C124.696 27.2816 124.894 28.2809 125.644 28.7634C126.387 29.2453 127.385 29.0335 127.878 28.2894C128.378 27.5363 128.173 26.5407 127.433 26.0521C127.169 25.8787 126.868 25.7952 126.567 25.7952C126.038 25.7952 125.511 26.0537 125.188 26.5338Z" fill="url(#paint3_radial_94_6287)"/>
<path d="M127.308 27.4191C127.078 27.7955 126.576 27.897 126.199 27.6534C125.836 27.4156 125.744 26.925 125.979 26.5528C126.227 26.1817 126.72 26.0801 127.094 26.3137C127.46 26.5653 127.562 27.0509 127.308 27.4191Z" fill="white"/>
<path d="M126.199 28.431C126.101 28.571 125.905 28.61 125.754 28.5204C125.606 28.4231 125.567 28.2187 125.659 28.0737C125.763 27.9202 125.964 27.8889 126.119 27.9836C126.264 28.0764 126.303 28.281 126.199 28.431Z" fill="white"/>
<path d="M129.71 30.1301C129.71 30.1301 129.952 26.3691 127.523 25.1778C124.548 23.7191 122.617 26.2665 122.617 26.2665C122.617 26.2665 125.769 24.6485 127.732 26.4251C129.684 28.1942 129.71 30.1301 129.71 30.1301Z" fill="black"/>
<path d="M125.39 25.4032C126.381 25.4032 127.213 25.7001 127.859 26.2848C128.591 26.9478 129.057 27.6307 129.36 28.2335C129.135 27.1633 128.617 25.9249 127.439 25.3478C126.855 25.0615 126.27 24.9162 125.701 24.9162C124.729 24.9162 123.952 25.3409 123.444 25.7332C123.963 25.5654 124.657 25.4032 125.39 25.4032ZM129.709 30.3192H129.704C129.605 30.3165 129.523 30.2346 129.521 30.1331C129.52 30.1148 129.467 28.2526 127.605 26.5656C127.031 26.0449 126.285 25.7814 125.39 25.7814C123.996 25.7814 122.715 26.4282 122.703 26.4351C122.625 26.4746 122.529 26.4553 122.472 26.3874C122.416 26.3201 122.413 26.2228 122.466 26.1526C122.517 26.0866 123.713 24.5382 125.701 24.5382C126.328 24.5382 126.969 24.6962 127.605 25.0082C130.12 26.2414 129.907 29.9841 129.899 30.1426C129.892 30.2423 129.81 30.3192 129.709 30.3192Z" fill="black"/>
<path d="M118.947 22.4039C121.217 16.8339 126.897 12.3357 133.658 10.8568C133.658 10.8568 133.92 7.40938 145.273 14.0481C151.739 17.8335 151.823 24.01 151.823 24.01C151.823 24.01 152.485 31.9819 147.471 38.706C141.346 46.9199 132.487 53.82 121.563 46.6148C111.291 39.8347 115.459 30.9035 118.947 22.4039Z" fill="black"/>
<path d="M119.813 23.621C121.983 18.3545 127.289 13.4059 133.674 11.9793C133.674 11.9793 136.181 11.6177 139.572 12.9036C141.045 13.4645 142.672 14.3218 144.341 15.6615C146.508 17.4023 148.083 18.3336 149.108 20.3525C150.24 22.5749 150.198 23.9942 150.198 23.9942C150.198 23.9942 150.824 32.7568 146.086 38.4198C141.326 44.0825 129.213 52.8377 121.868 45.5442C113.68 37.4366 116.493 31.675 119.813 23.621Z" fill="white"/>
<path d="M134.015 19.5741C134.015 19.5741 132.96 17.3912 130.841 17.2454C128.784 17.0972 127.712 17.5351 127.689 17.8291C127.68 18.1239 127.732 18.4998 128.645 18.3471C129.562 18.2015 131.176 17.8264 132.101 18.6795C133.025 19.5344 133.867 20.4627 134.015 19.5741Z" fill="black"/>
<path d="M133.816 40.1398C133.816 40.1398 135.678 41.3621 136.148 44.0434C136.5 46.0496 136.673 50.4706 131.837 51.7316C125.658 53.342 122.362 47.8603 123.31 46.0408C124.28 44.2157 128.133 35.6805 133.816 40.1398Z" fill="black"/>
<path d="M122.856 35.1557C122.792 34.7981 122.818 34.4347 123.109 34.3867C123.109 34.3867 126.388 33.0462 129.91 35.2127C133.714 37.5455 134.045 40.297 134.045 40.297C134.045 40.297 134.093 40.7366 133.52 40.8609C131.733 41.2529 126.817 41.7863 126.145 41.7547C125.469 41.7277 123.209 36.9498 122.856 35.1557Z" fill="black"/>
<path d="M123.506 44.8578C123.506 44.8578 121.308 46.9655 118.833 45.3514C116.342 43.7302 118.588 45.243 118.588 45.243L120.764 46.2368C120.764 46.2368 123.13 46.912 124.416 48.6279C125.453 50.0233 126.008 49.8785 126.008 49.8785C126.008 49.8785 123.381 47.712 123.566 46.8423C123.754 45.9709 123.506 44.8578 123.506 44.8578Z" fill="black"/>
<path d="M126.119 50.8375C126.119 50.8375 125.167 49.9847 124.223 48.7542C123.293 47.5152 122.983 46.928 122.039 46.747C121.078 46.5747 118.989 46.3237 117.82 45.5719C116.682 44.8153 117.499 44.9611 117.499 44.9611L122.768 46.2852L124.507 48.3301L126.871 50.7437L126.119 50.8375Z" fill="black"/>
<path d="M118.456 45.8691C119.617 46.6763 121.3 46.4568 122.412 47.3427C122.297 47.6656 123.03 47.5924 123.19 47.7663C123.077 48.0325 123.773 48.2634 123.901 48.441C123.977 48.5841 124.031 48.7771 124.156 48.9253C124.37 49.1758 124.669 49.3969 124.936 49.601C125.312 49.8785 125.769 50.1873 126.216 50.3016C126.48 49.9922 125.633 49.2238 125.453 49.0432C125.108 48.7053 124.802 48.3233 124.488 47.9384C124.28 47.6688 124.031 47.4485 123.832 47.1715C123.646 46.9281 123.386 46.4884 123.091 46.3473C122.988 46.2933 122.894 46.3158 122.776 46.3359C122.426 46.376 122.058 46.364 121.719 46.3081C121.333 46.2453 120.96 46.1361 120.573 46.1048C120.122 46.074 119.728 46.0496 119.299 45.9007C119.043 45.7994 118.715 45.7594 118.489 45.6184L118.456 45.8691Z" fill="black"/>
<path d="M142.671 26.1644C142.671 26.1644 135.57 26.2351 133.834 32.036C131.944 38.3762 138.572 41.3621 142.218 40.5078C144.425 39.9911 144.827 38.447 144.898 36.1464C145.005 33.4539 149.377 28.571 142.671 26.1644Z" fill="black"/>
<path d="M123.637 25.3337C122.527 27.004 123.123 29.3201 124.946 30.5191C126.776 31.7103 129.156 31.3292 130.259 29.665C131.371 27.997 130.774 25.6754 128.953 24.4794C127.128 23.2844 124.735 23.6688 123.637 25.3337Z" fill="white"/>
<path d="M124.522 26.205C123.637 27.5172 124.037 29.2887 125.376 30.1654C126.712 31.0481 128.507 30.7001 129.379 29.3871C130.249 28.0736 129.858 26.2941 128.52 25.4169C127.185 24.5387 125.396 24.8918 124.522 26.205Z" fill="black"/>
<mask id="mask18_94_6287" style="mask-type:luminance" maskUnits="userSpaceOnUse" x="125" y="25" width="5" height="5">
<path d="M125.792 25.6317H129.455V29.2885H125.792V25.6317Z" fill="white"/>
</mask>
<g mask="url(#mask18_94_6287)">
<g opacity="0.5">
<path d="M129.144 28.4578C128.583 29.3007 127.437 29.543 126.608 28.9951C125.76 28.4448 125.543 27.3174 126.101 26.4704C126.663 25.6195 127.803 25.3738 128.639 25.9299C129.478 26.4741 129.71 27.6082 129.144 28.4578Z" fill="url(#paint4_radial_94_6287)"/>
</g>
</g>
<path d="M127.265 26.6631C126.979 27.0827 127.097 27.6463 127.519 27.9201C127.921 28.1908 128.489 28.0736 128.77 27.6463C129.048 27.2306 128.939 26.6822 128.515 26.4057C128.097 26.1337 127.53 26.2509 127.265 26.6631Z" fill="white"/>
<path d="M126.706 28.2693C126.603 28.431 126.642 28.6661 126.817 28.7671C126.979 28.8845 127.213 28.8376 127.312 28.6661C127.428 28.4964 127.375 28.2693 127.224 28.1558C127.044 28.054 126.817 28.093 126.706 28.2693Z" fill="white"/>
<path d="M135.57 37.7104C135.57 37.7104 131.212 31.2482 122.83 29.6296C118.744 28.8375 127.298 28.5085 132.704 32.6317C138.101 36.7611 135.57 37.7104 135.57 37.7104Z" fill="black"/>
<path d="M142.424 36.6361C141.272 38.3761 140.619 37.6943 139.005 36.6361C137.383 35.5813 134.914 34.4645 136.07 32.7253C137.235 30.9779 140.619 29.5197 141.783 31.1886C142.882 32.764 143.587 34.8884 142.424 36.6361Z" fill="white"/>
<path d="M136.629 33.9485C135.868 35.1072 136.201 36.6754 137.394 37.4465C138.579 38.228 140.164 37.9147 140.925 36.7539C141.697 35.5939 141.362 34.0357 140.172 33.2579C138.983 32.4786 137.399 32.7924 136.629 33.9485Z" fill="black"/>
<mask id="mask19_94_6287" style="mask-type:luminance" maskUnits="userSpaceOnUse" x="137" y="33" width="4" height="4">
<path d="M137.757 33.444H140.986V36.6735H137.757V33.444Z" fill="white"/>
</mask>
<g mask="url(#mask19_94_6287)">
<g opacity="0.5">
<path d="M140.72 35.9384C140.221 36.6905 139.214 36.8956 138.472 36.4132C137.725 35.9276 137.53 34.9277 138.042 34.1828C138.534 33.4331 139.531 33.2176 140.266 33.7051C141.012 34.191 141.208 35.1898 140.72 35.9384Z" fill="url(#paint5_radial_94_6287)"/>
</g>
</g>
<path d="M139.054 34.3593C138.805 34.7241 138.911 35.2216 139.27 35.461C139.649 35.7038 140.14 35.5938 140.383 35.233C140.624 34.8569 140.536 34.371 140.166 34.1242C139.793 33.8854 139.302 33.9877 139.054 34.3593Z" fill="white"/>
<path d="M138.57 35.7669C138.457 35.923 138.514 36.111 138.655 36.2138C138.802 36.3077 139.012 36.2645 139.094 36.1192C139.2 35.9702 139.169 35.7743 139.012 35.6763C138.862 35.5782 138.667 35.6179 138.57 35.7669Z" fill="white"/>
<path d="M136.673 44.2634C136.673 44.2634 135.585 45.6376 136.03 46.0095C136.451 46.3758 136.377 46.6764 136.377 46.6764C136.377 46.6764 137.281 46.4018 139.182 45.1911C141.077 43.9728 143.6 41.3716 143.6 41.3716C143.6 41.3716 141.369 42.0838 139.496 41.143C137.629 40.1869 135.885 41.5436 135.885 41.5436L136.673 44.2634Z" fill="white"/>
<path d="M126.95 14.7483C126.95 14.7483 120.672 19.703 118.584 26.6664C116.935 32.2239 116.493 35.1984 116.493 35.1984L115.265 34.1288C115.265 34.1288 116.349 27.8657 118.395 23.5003C120.444 19.1389 122.559 17.3084 122.559 17.3084L126.95 14.7483Z" fill="black"/>
<path d="M147.675 18.5977C147.675 18.5977 149.639 20.5219 150.198 22.3553C150.734 24.1812 150.299 26.1017 150.198 26.4057C150.075 26.7058 150.596 29.1512 149.596 31.9097C148.602 34.6695 147.945 35.2418 147.945 35.2418L146.986 32.5016C146.986 32.5016 147.899 29.8722 147.845 28.2735C147.79 26.6783 145.116 20.7838 145.116 20.7838L147.675 18.5977Z" fill="white"/>
<path d="M133.07 34.1042C133.07 34.1042 128.507 31.588 131.648 33.5091C133.741 34.7945 136.056 36.6668 137.975 39.3335C140.336 42.6052 137.104 35.1144 131.371 31.8086C125.633 28.5011 133.07 34.1042 133.07 34.1042Z" fill="black"/>
<path d="M147.899 18.6873C147.899 18.6873 149.507 20.168 149.806 22.5524C150.001 24.0176 150.824 22.9673 151.025 23.2022C152.017 24.3942 149.528 32.5291 149.258 33.0076C148.465 34.4969 148.097 32.7022 148.097 32.7022L144.132 20.0108L147.899 18.6873Z" fill="white"/>
<path d="M148.019 26.1728C148.019 26.1728 148.701 24.0799 147.387 22.662C146.105 21.2902 145.131 20.9053 144.937 21.0895C144.735 21.2817 144.54 21.5558 145.245 22.0266C145.934 22.5003 147.241 23.2492 147.311 24.3943C147.38 25.5376 147.359 26.6743 148.019 26.1728Z" fill="black"/>
<path d="M146.438 17.2569C146.438 17.2569 148.296 18.7196 148.88 19.8398C149.465 20.9609 149.982 24.3155 149.982 24.3155C149.982 24.3155 151.78 24.5188 150.919 21.9563C150.068 19.4091 149.007 18.6096 149.007 18.6096L146.438 17.2569Z" fill="black"/>
<path d="M151.852 30.0448C151.852 30.0448 150.644 27.7243 150.512 28.2987C150.387 28.8755 149.266 31.9842 149.145 32.3026C149.011 32.6315 145.972 38.1954 144.851 39.5049C143.731 40.8152 139.311 44.8548 137.787 45.9157C136.279 46.9837 138.714 47.1939 138.714 47.1939C138.714 47.1939 144.233 42.3511 146.281 39.9356C148.314 37.5252 150.512 32.3185 150.512 32.3185L153.378 26.8397L151.852 30.0448Z" fill="#030303"/>
<path d="M148.759 18.8749C148.759 18.8749 152.739 15.2626 157.713 18.1852C162.883 21.2148 166.15 22.1562 166.705 21.4476C169.649 17.7425 170.479 18.7819 170.479 18.7819C170.479 18.7819 170.425 24.3738 166.133 27.0072C162.566 29.2061 158.102 25.8276 155.02 27.0658C154.195 27.399 150.656 31.8786 150.656 31.8786L150.606 29.8258C150.606 29.8258 146.974 21.7286 148.759 18.8749Z" fill="black"/>
<path d="M148.177 20.7809C148.177 20.7809 148.701 21.4475 149.437 21.0706C150.186 20.7021 153.281 20.3408 155.411 21.2819C157.534 22.229 161.027 23.4296 162.478 23.5703C163.94 23.7119 166.296 22.9397 166.296 22.9397C166.296 22.9397 163.256 26.2087 159.12 26.02C155.245 25.8509 149.566 30.1465 149.566 30.1465L147.813 23.8177L148.177 20.7809Z" fill="white"/>
<path d="M135.771 13.0059C135.712 13.538 133.747 7.9272 140.393 8.50747C145.006 8.8982 147.723 9.22637 149.037 6.99331C149.973 5.3914 149.733 4.17917 149.733 4.17917C149.733 4.17917 146.326 7.36973 143.152 5.32434C134.993 0.0883968 131.444 0.676088 127.752 5.8105C124.058 10.9362 128.419 14.4628 128.419 14.4628" fill="white"/>
<path d="M131.964 5.69738C131.964 5.69738 132.886 6.10773 131.985 6.90245C130.619 8.12263 129.334 11.987 129.887 11.8449C130.882 11.5788 131.189 11.5321 132.337 11.3742C134.632 11.0452 134.471 12.0013 134.471 12.0013C134.471 12.0013 129.262 13.4206 128.884 13.5616C128.507 13.7034 126.712 9.9981 131.964 5.69738Z" fill="black"/>
<path d="M150.095 22.2615C150.095 22.2615 152.707 20.988 157.028 23.0764C159.84 24.4397 162.101 23.1363 162.101 23.1363L169.636 22.63C169.636 22.63 167.371 29.0029 162.611 28.2105C152.308 26.4925 150.481 32.6032 150.481 32.6032C150.481 32.6032 149.101 32.7177 149.708 30.7145C150.695 27.4579 150.095 22.2615 150.095 22.2615Z" fill="black"/>
<path d="M33.3147 103.925C33.3147 89.1664 45.3732 77.1817 60.2398 77.1817C75.1202 77.1817 87.1731 89.1664 87.1731 103.925C87.1731 118.692 75.1202 130.66 60.2398 130.66C45.3732 130.66 33.3147 118.692 33.3147 103.925Z" fill="black"/>
<mask id="mask20_94_6287" style="mask-type:luminance" maskUnits="userSpaceOnUse" x="36" y="80" width="48" height="48">
<path d="M36.4932 80.3331H83.9961V127.509H36.4932V80.3331Z" fill="white"/>
</mask>
<g mask="url(#mask20_94_6287)">
<g opacity="0.229996">
<path d="M36.4932 103.925C36.4932 90.9062 47.1212 80.333 60.2398 80.333C73.3601 80.333 83.9955 90.9062 83.9955 103.925C83.9955 116.944 73.3601 127.508 60.2398 127.508C47.1212 127.508 36.4932 116.944 36.4932 103.925Z" fill="white"/>
</g>
</g>
<path d="M42.437 103.925C42.437 94.1503 50.4004 86.2269 60.2398 86.2269C70.0819 86.2269 78.0601 94.1503 78.0601 103.925C78.0601 113.683 70.0819 121.608 60.2398 121.608C50.4004 121.608 42.437 113.683 42.437 103.925Z" fill="black"/>
<mask id="mask21_94_6287" style="mask-type:luminance" maskUnits="userSpaceOnUse" x="46" y="90" width="28" height="28">
<path d="M46.5417 90.3196H73.9529V117.524H46.5417V90.3196Z" fill="white"/>
</mask>
<g mask="url(#mask21_94_6287)">
<g opacity="0.229996">
<path d="M46.5413 103.925C46.5413 96.4085 52.6855 90.3196 60.2399 90.3196C67.8078 90.3196 73.9521 96.4085 73.9521 103.925C73.9521 111.433 67.8078 117.524 60.2399 117.524C52.6855 117.524 46.5413 111.433 46.5413 103.925Z" fill="#CDCDCD"/>
</g>
</g>
<path d="M49.6759 92.8739C43.5231 98.665 43.2724 108.322 49.1099 114.428C54.9479 120.526 64.6719 120.776 70.8106 114.984C76.9766 109.183 77.2149 99.5347 71.38 93.4221C68.3644 90.2682 64.3116 88.6782 60.2515 88.6779C56.4525 88.6776 52.6473 90.0693 49.6759 92.8739ZM68.4586 94.8538L62.5523 100.436C62.2635 100.24 61.9644 100.083 61.6282 99.9745L61.836 91.8303C61.0882 91.7282 60.3309 91.7054 59.5712 91.7447L59.3596 99.8414C58.9999 99.9116 58.6452 100.029 58.3085 100.217L52.683 94.3226C52.5366 94.4302 52.3947 94.5429 52.255 94.6598C56.947 90.6597 63.8921 90.7641 68.4586 94.8538ZM68.6516 95.0275C68.6948 95.0678 68.7371 95.1089 68.7795 95.1499C68.7371 95.1089 68.6942 95.0686 68.6516 95.0275ZM72.4969 103.212L64.3487 102.991C64.2799 102.693 64.1819 102.404 64.053 102.122L69.9982 96.509C69.7372 96.1885 69.455 95.8596 69.1535 95.5211C71.5134 97.9914 72.6263 101.181 72.5183 104.33C72.5286 103.957 72.5212 103.583 72.4969 103.212ZM51.1331 95.7445C51.0966 95.7854 51.0606 95.8262 51.0251 95.8675L56.6522 101.753C56.4518 102.082 56.2927 102.419 56.2 102.788L48.0418 102.577C47.9989 102.939 47.974 103.307 47.9653 103.675C48.0233 100.82 49.0848 97.9879 51.1331 95.7445ZM47.9642 104.105C47.964 104.139 47.9642 104.174 47.9642 104.208C47.9642 104.174 47.9642 104.139 47.9642 104.105ZM72.5006 104.691C72.4979 104.74 72.4953 104.789 72.4916 104.839C72.495 104.789 72.4979 104.74 72.5006 104.691ZM47.9973 104.841L56.1846 105.037C56.2815 105.39 56.4216 105.719 56.6132 106.025L50.7088 111.59C50.7832 111.687 50.8626 111.783 50.9423 111.879C49.1652 109.838 48.1879 107.362 47.9973 104.841ZM63.882 106.025C64.0334 105.79 64.1494 105.515 64.233 105.25L72.4259 105.469C72.1257 107.797 71.1484 110.052 69.504 111.92L63.882 106.025ZM61.2153 116.072L61.4167 107.93C61.7068 107.851 61.9808 107.741 62.241 107.601L67.8591 113.478C63.2734 117.1 56.7329 116.978 52.2896 113.21L58.2473 107.601C58.5269 107.757 58.8392 107.875 59.1508 107.954L58.9409 116.042C59.3676 116.09 59.7953 116.114 60.2242 116.114C60.5537 116.114 60.8841 116.1 61.2153 116.072Z" fill="url(#paint6_linear_94_6287)"/>
<path d="M142.888 103.925C142.888 89.1664 154.943 77.1817 169.813 77.1817C184.688 77.1817 196.742 89.1664 196.742 103.925C196.742 118.692 184.688 130.66 169.813 130.66C154.943 130.66 142.888 118.692 142.888 103.925Z" fill="black"/>
<mask id="mask22_94_6287" style="mask-type:luminance" maskUnits="userSpaceOnUse" x="146" y="80" width="48" height="48">
<path d="M146.058 80.3331H193.566V127.509H146.058V80.3331Z" fill="white"/>
</mask>
<g mask="url(#mask22_94_6287)">
<g opacity="0.229996">
<path d="M146.058 103.925C146.058 90.9062 156.693 80.333 169.812 80.333C182.927 80.333 193.567 90.9062 193.567 103.925C193.567 116.944 182.927 127.508 169.812 127.508C156.693 127.508 146.058 116.944 146.058 103.925Z" fill="white"/>
</g>
</g>
<path d="M152.002 103.925C152.002 94.1503 159.977 86.2269 169.813 86.2269C179.651 86.2269 187.632 94.1503 187.632 103.925C187.632 113.683 179.651 121.608 169.813 121.608C159.977 121.608 152.002 113.683 152.002 103.925Z" fill="black"/>
<mask id="mask23_94_6287" style="mask-type:luminance" maskUnits="userSpaceOnUse" x="156" y="90" width="28" height="28">
<path d="M156.125 90.3196H183.515V117.524H156.125V90.3196Z" fill="white"/>
</mask>
<g mask="url(#mask23_94_6287)">
<g opacity="0.229996">
<path d="M156.125 103.925C156.125 96.4085 162.251 90.3196 169.813 90.3196C177.383 90.3196 183.516 96.4085 183.516 103.925C183.516 111.433 177.383 117.524 169.813 117.524C162.251 117.524 156.125 111.433 156.125 103.925Z" fill="#CDCDCD"/>
</g>
</g>
<path d="M154.554 102.239C153.618 110.61 159.689 118.15 168.122 119.075C176.56 120.015 184.144 113.964 185.071 105.609C186.011 97.2308 179.934 89.682 171.501 88.7572C170.93 88.6946 170.363 88.6641 169.801 88.6641C162.083 88.6636 155.434 94.4435 154.554 102.239ZM171.174 91.7919C170.802 91.7592 170.425 91.7365 170.068 91.7282L169.165 99.8014C168.785 99.856 168.418 99.9586 168.071 100.115L162.976 93.7903C162.362 94.2147 161.775 94.6847 161.241 95.1839C163.782 92.7234 167.372 91.3722 171.174 91.7919ZM171.423 100.052L172.324 91.9875C172.091 91.94 171.861 91.8931 171.628 91.8541C174.449 92.2748 176.917 93.6276 178.748 95.56L172.395 100.609C172.098 100.389 171.776 100.193 171.423 100.052ZM157.754 101.636C158.236 99.1156 159.477 96.9024 161.214 95.2101L166.333 101.573C166.127 101.846 165.971 102.178 165.845 102.522L157.754 101.636ZM179.736 96.7391C179.739 96.7415 179.739 96.7439 179.741 96.746C179.738 96.7439 179.738 96.7415 179.736 96.7391ZM173.995 103.423C173.95 103.085 173.872 102.741 173.741 102.419L180.145 97.3337C181.456 99.3581 182.173 101.775 182.086 104.323L173.995 103.423ZM157.707 101.891C157.699 101.938 157.691 101.986 157.683 102.034C157.69 101.986 157.699 101.938 157.707 101.891ZM157.532 103.87L165.691 104.778C165.754 105.1 165.874 105.398 165.996 105.688L159.639 110.751C159.96 111.22 160.31 111.664 160.689 112.09C158.697 109.893 157.513 106.989 157.532 103.87ZM178.276 112.757L173.173 106.431C173.359 106.205 173.528 105.931 173.659 105.649L181.798 106.55C181.82 106.457 181.842 106.365 181.862 106.273C180.724 112.06 175.554 116.221 169.626 116.115L170.533 108.048C170.814 108 171.098 107.913 171.367 107.805L176.485 114.152C177.127 113.761 177.716 113.282 178.276 112.757ZM161.087 112.509L167.48 107.405C167.735 107.561 167.987 107.71 168.271 107.805L167.366 115.871C164.91 115.382 162.752 114.18 161.087 112.509Z" fill="url(#paint7_linear_94_6287)"/>
<path d="M133.931 102.428C133.931 103.069 116.935 103.595 95.9888 103.595C75.0227 103.595 58.041 103.069 58.041 102.428C58.041 101.784 79.5789 102.028 100.539 102.028C121.501 102.028 133.931 101.784 133.931 102.428Z" fill="white"/>
<path d="M101.92 98.3357C101.92 99.018 93.6877 99.59 83.5344 99.59C73.3895 99.59 65.155 99.018 65.155 98.3357C65.155 97.6454 75.598 97.9136 85.7402 97.9136C95.8936 97.9136 101.92 97.6454 101.92 98.3357Z" fill="white"/>
<path d="M206.701 100.335C206.701 101.032 198.474 101.605 188.319 101.605C178.161 101.605 169.933 101.032 169.933 100.335C169.933 99.6534 180.383 99.9116 190.528 99.9116C200.678 99.9116 206.701 99.6534 206.701 100.335Z" fill="white"/>
<path d="M244.008 40.8553C244.176 41.8088 235.296 42.2706 214.164 42.3368C192.151 42.4058 184.327 41.9543 184.368 40.8553C184.392 40.2109 201.296 40.4672 217.766 40.4672C234.234 40.4672 243.896 40.2201 244.008 40.8553Z" fill="white"/>
<path d="M235.662 36.4598C235.662 37.1538 227.44 37.7104 217.294 37.7104C207.137 37.7104 198.911 37.1538 198.911 36.4598C198.911 35.7668 209.343 36.0401 219.502 36.0401C229.657 36.0401 235.662 35.7668 235.662 36.4598Z" fill="white"/>
<path d="M117.661 39.465C117.661 39.465 114.898 48.6912 119.651 51.7864C124.619 55.0167 132.502 46.5905 132.502 46.5905C132.502 46.5905 127.957 39.246 123.427 38.1059C118.897 36.966 117.661 39.465 117.661 39.465Z" fill="black"/>
<path d="M119.875 38.1882C119.875 38.1882 117.165 46.4885 118.989 49.0124C120.829 51.5278 122.585 51.4268 124.001 50.9162C127.56 49.6314 129.278 46.4885 129.278 46.4885L127.648 43.7301L119.875 38.1882Z" fill="white"/>
<path d="M120.36 42.0494C120.36 42.0494 119.096 46.9861 121.106 48.4878C123.542 50.3211 126.756 46.6765 126.756 46.6765L124.324 43.2595L120.36 42.0494Z" fill="black"/>
<path d="M125.633 31.5663C125.633 31.5663 123.678 30.2844 120.935 30.8628C118.892 31.2973 114.153 33.0778 115.407 38.0039C116.97 44.0897 123.265 45.2068 124.571 43.6149C125.881 42.022 132.313 35.1709 125.633 31.5663Z" fill="black"/>
<path d="M117.866 30.014L117.882 34.3402L121.044 35.5938L123.637 35.3745L128.389 37.2556L130.857 39.7126L132.195 41.9656C132.195 41.9656 137.152 46.4421 137.328 46.3941C137.52 46.3546 142.14 41.6207 142.14 41.6207C142.14 41.6207 139.929 42.8589 139.741 41.7466C139.539 40.641 136.629 37.9445 136.629 37.9445L128.127 31.5663L122.905 29.9469L119.97 29.6837L117.866 30.014Z" fill="white"/>
<path d="M135.728 37.5528C135.728 37.5528 138.118 39.168 138.016 41.9792C137.93 44.7875 137.697 46.4456 134.702 47.9195C131.709 49.3883 127.868 48.3423 126.101 45.3675C124.338 42.393 127.029 39.2268 129.082 38.29C131.108 37.3492 135.242 37.06 135.728 37.5528Z" fill="white"/>
<path d="M125.543 31.8402C125.543 31.8402 123.386 30.6863 120.955 31.7999C118.512 32.9096 116.75 33.2027 116.62 36.3466C116.493 39.4736 119.117 42.5851 122.416 43.036C125.727 43.4835 127.454 39.991 127.486 37.89C127.519 35.7847 126.168 32.0865 125.543 31.8402Z" fill="white"/>
<path d="M138.631 44.5363C138.631 44.5363 138.434 44.8191 138.268 44.803C138.094 44.7836 137.409 44.8419 137.431 45.3053C137.444 45.5638 137.394 46.2768 137.266 46.473C137.141 46.6604 136.725 47.273 136.438 47.4602C136.136 47.633 135.292 47.9196 134.833 48.1348C134.389 48.3503 132.529 48.8951 131.926 48.8256C131.315 48.754 130.356 48.6758 130.119 48.5698C129.874 48.4553 129.574 49.0512 130.127 49.2238C130.672 49.3884 133.136 49.9846 133.747 49.7335C134.349 49.4833 135.322 49.193 135.967 48.8784C136.622 48.5539 137.806 47.6685 138.063 47.273C138.609 46.442 139.398 44.8979 138.693 45.0384C138.52 45.0779 138.746 44.5644 138.631 44.5363Z" fill="black"/>
<path d="M134.565 38.4123C134.565 38.4123 134.202 36.948 134.386 38.1122C134.421 38.3428 134.085 38.0523 134.085 38.0523C134.085 38.0523 129.571 38.9716 128.987 39.114C128.158 39.3059 125.272 42.7316 125.517 44.2926C125.758 45.8511 126.352 46.2627 126.656 46.693C126.959 47.1253 127.593 47.8578 128.813 48.4924C130.46 49.3404 132.141 48.5968 132.141 48.5968C129.327 47.3976 127.732 47.1314 127.289 44.6744C126.997 43.0157 128.389 41.3714 128.758 41.1156C130.329 39.9357 134.565 38.4123 134.565 38.4123Z" fill="#BABABA"/>
<path d="M120.434 42.4365C124.294 44.1484 125.698 42.4115 127.187 39.5091C128.585 36.7857 126.217 34.4776 126.217 34.4776C126.217 34.4776 124.957 33.5803 125.328 35.3897C125.705 37.2164 126.535 38.4469 125.657 39.7753C124.779 41.1039 123.637 43.5063 120.499 41.444C117.346 39.3922 117.017 37.7885 117.017 37.7885C117.017 37.7885 116.527 36.7963 116.717 37.5928C117.017 38.9212 117.824 41.2796 120.41 42.4365" fill="#BABABA"/>
<mask id="mask24_94_6287" style="mask-type:luminance" maskUnits="userSpaceOnUse" x="125" y="32" width="9" height="5">
<path d="M125.559 32.1909H133.685V36.7557H125.559V32.1909Z" fill="white"/>
</mask>
<g mask="url(#mask24_94_6287)">
<g opacity="0.5">
<path d="M132.337 33.5168C132.337 33.5168 130.192 32.1527 127.868 32.1917C125.533 32.2428 125.36 32.4432 125.683 33.3596C126.008 34.2781 127.224 36.8749 127.375 36.7514C127.533 36.6209 127.097 34.4099 128.77 34.3592C130.443 34.3158 132.215 34.8409 132.873 35.7038C133.525 36.5674 134.543 35.0336 132.337 33.5168Z" fill="white"/>
</g>
</g>
<path d="M127.534 37.7331C127.534 37.7331 127.499 38.8545 126.95 39.6926C126.393 40.5396 124.28 43.5695 124.338 43.8237C124.395 44.1911 124.496 44.3709 124.932 44.2781C125.36 44.1768 127.523 40.8643 127.803 40.4452C128.076 40.0304 129.232 38.8852 129.492 38.8226C129.76 38.7601 127.534 37.7331 127.534 37.7331Z" fill="black"/>
<mask id="mask25_94_6287" style="mask-type:luminance" maskUnits="userSpaceOnUse" x="124" y="31" width="13" height="9">
<path d="M125.14 31.6825C124.895 31.7164 124.826 31.9887 124.864 32.3338C124.935 32.9925 125.347 33.9484 125.43 34.1616C126.233 36.2687 127.684 39.0428 128.201 39.107C129.688 39.2387 131.329 38.8501 132.82 38.6425C133.224 38.5964 134.549 38.5651 135.376 38.2982C135.817 38.1508 136.141 37.9451 136.164 37.6302C136.164 37.6302 135.913 35.368 133.015 33.1956C131.475 32.0467 129.533 31.2499 127.559 31.2496C126.75 31.2496 125.935 31.3838 125.14 31.6825Z" fill="white"/>
</mask>
<g mask="url(#mask25_94_6287)">
<path d="M125.429 34.1613C126.232 36.2688 127.684 39.0428 128.2 39.1068C128.993 37.9397 130.154 36.4525 131.188 34.9653C129.451 33.88 126.986 32.419 124.863 32.3337C124.935 32.9924 125.347 33.9483 125.429 34.1613Z" fill="#030303"/>
<path d="M128.2 39.1068C128.334 39.1187 128.468 39.1264 128.604 39.1304C129.393 38.0232 130.598 36.6259 131.644 35.2073C131.494 35.1255 131.342 35.045 131.187 34.9653C130.154 36.4525 128.993 37.9397 128.2 39.1068Z" fill="#030303"/>
<path d="M128.604 39.1304C129.981 39.1704 131.462 38.8314 132.819 38.6427C133.224 38.5962 134.548 38.5651 135.375 38.298C134.868 38.2933 134.15 36.7784 131.644 35.2073C130.598 36.6259 129.393 38.0232 128.604 39.1304Z" fill="#030303"/>
<path d="M124.863 32.3337C126.986 32.419 129.451 33.88 131.188 34.9653C131.691 34.2562 132.176 33.5465 132.571 32.8817C130.449 31.4617 127.692 30.7234 125.139 31.6824C124.894 31.7163 124.826 31.9888 124.863 32.3337Z" fill="#030303"/>
<path d="M131.188 34.9653C131.342 35.045 131.494 35.1255 131.644 35.2073C132.155 34.5301 132.639 33.8477 133.014 33.1955C132.87 33.0877 132.722 32.983 132.571 32.8818C132.176 33.5465 131.691 34.2562 131.188 34.9653Z" fill="#030303"/>
<path d="M131.644 35.2073C134.151 36.7784 134.868 38.2933 135.375 38.298C135.816 38.1508 136.141 37.945 136.163 37.6301C136.163 37.6301 135.912 35.368 133.014 33.1955C132.639 33.8477 132.155 34.5301 131.644 35.2073Z" fill="#030303"/>
</g>
<path d="M132.863 38.6116C132.314 38.6392 131.704 38.736 131.129 38.1568C130.549 37.5773 130.414 36.7778 130.807 36.3743C131.204 35.955 132.001 36.0957 132.573 36.6752C133.145 37.2507 133.858 38.556 132.863 38.6116Z" fill="black"/>
<path d="M128.809 35.493C128.6 36.0242 127.74 36.182 126.914 35.8604C126.065 35.5391 125.915 35.1145 125.744 34.5915C125.328 33.4235 126.867 33.6496 127.697 33.9643C128.534 34.2803 129.033 34.9668 128.809 35.493Z" fill="black"/>
<mask id="mask26_94_6287" style="mask-type:luminance" maskUnits="userSpaceOnUse" x="126" y="31" width="9" height="7">
<path d="M126.024 31.8527H134.927V37.2437H126.024V31.8527Z" fill="white"/>
</mask>
<g mask="url(#mask26_94_6287)">
<g opacity="0.199997">
<path d="M126.648 31.9889C125.788 32.3646 125.953 33.3915 126.342 33.3995C127.02 33.4236 128.366 33.1879 128.87 34.1242C129.378 35.0647 129.156 36.0132 128.851 36.4795C128.645 36.7862 129.528 37.6238 130.008 37.0441C130.236 36.774 130.269 36.5765 130.586 36.2101C131.26 35.4061 132.636 36.111 132.919 36.5582C133.16 36.954 134.731 37.2371 134.914 36.5847C135.101 35.9384 133.424 33.4538 130.192 32.3813C128.789 31.9179 127.33 31.687 126.648 31.9889Z" fill="white"/>
</g>
</g>
<mask id="mask27_94_6287" style="mask-type:luminance" maskUnits="userSpaceOnUse" x="126" y="32" width="9" height="5">
<path d="M126.543 32.0631H134.397V36.6738H126.543V32.0631Z" fill="white"/>
</mask>
<g mask="url(#mask27_94_6287)">
<g opacity="0.399994">
<path d="M130.155 32.5462C128.77 32.0865 127.524 31.9415 127.002 32.1692C126.544 32.3813 126.544 32.7611 126.544 32.8749C126.567 33.031 126.642 33.1248 126.693 33.133L127.044 33.1216C127.752 33.1087 128.726 33.0779 129.156 33.8803C129.687 34.8884 129.379 35.8369 129.118 36.2361C129.118 36.2605 129.176 36.4092 129.35 36.5391C129.431 36.6054 129.722 36.7931 129.914 36.5616L130.127 36.2605C130.127 36.2563 130.447 35.7892 130.447 35.7892C130.676 35.5111 131 35.3666 131.378 35.3746C132.023 35.3855 132.687 35.8054 132.88 36.111C132.981 36.2913 133.658 36.4991 134.128 36.3928C134.277 36.3501 134.371 36.2913 134.389 36.2101C134.516 35.799 133.117 33.5323 130.155 32.5462Z" fill="white"/>
</g>
</g>
<path d="M127.895 32.314C127.895 32.314 127.128 32.4897 127.626 32.71C128.117 32.9292 129.27 33.0628 129.698 33.5408C130.841 34.872 133.335 35.1315 131.848 33.8C131.197 33.2176 129.327 32.314 127.895 32.314Z" fill="white"/>
<path d="M117.242 33.8931C117.242 33.8931 117.921 33.1723 119.189 33.035C120.443 32.9027 120.824 32.4521 120.467 32.1615C119.712 31.5256 117.519 31.8087 116.991 32.4118C116.442 33.0231 117.242 33.8931 117.242 33.8931Z" fill="black"/>
<path d="M138.042 43.2351C137.814 43.1028 136.946 42.7974 137.096 43.3056C137.096 43.3056 137.261 43.871 137.372 44.5133C137.484 45.1479 136.861 46.5664 136.587 46.7634C135.175 47.7664 138.889 45.8777 138.889 45.8777C138.889 45.8777 139.345 44.0261 138.042 43.2351Z" fill="black"/>
<path d="M130.612 43.2124C130.694 42.8482 131.059 42.6242 131.422 42.704C131.793 42.7888 132.023 43.1546 131.936 43.5181C131.848 43.8751 131.485 44.106 131.118 44.0193C130.746 43.9364 130.525 43.5695 130.612 43.2124Z" fill="black"/>
<path d="M130.676 45.8691C130.761 45.5126 131.127 45.2856 131.496 45.3676C131.851 45.4542 132.091 45.8145 132.001 46.1755C131.918 46.5387 131.55 46.7632 131.189 46.6805C130.818 46.5941 130.588 46.2296 130.676 45.8691Z" fill="black"/>
<path d="M119.906 35.8368C119.98 35.4689 120.357 35.2454 120.723 35.3347C121.086 35.4129 121.317 35.7745 121.229 36.1425C121.146 36.5038 120.77 36.7264 120.413 36.6519C120.059 36.5618 119.813 36.1939 119.906 35.8368Z" fill="black"/>
<path d="M122.285 37.459C122.371 37.0982 122.736 36.8718 123.091 36.9583C123.465 37.0442 123.694 37.4039 123.608 37.7644C123.521 38.1334 123.158 38.36 122.794 38.2741C122.426 38.1883 122.199 37.828 122.285 37.459Z" fill="black"/>
<path d="M119.905 38.3849C119.98 38.019 120.357 37.7916 120.716 37.8823C121.086 37.9639 121.31 38.3223 121.22 38.6894C121.142 39.0492 120.77 39.2846 120.413 39.196C120.048 39.1138 119.813 38.7496 119.905 38.3849Z" fill="black"/>
<path d="M133.714 45.3913C133.81 45.0237 134.17 44.8031 134.534 44.8816C134.907 44.9683 135.128 45.3291 135.042 45.6935C134.966 46.058 134.588 46.2852 134.228 46.198C133.867 46.1203 133.635 45.7519 133.714 45.3913Z" fill="black"/>
<path d="M121.317 44.0588C121.317 44.0588 124.661 45.583 124.949 46.8183C125.167 47.7191 123.048 48.4518 122.105 47.9935C119.879 46.9119 121.317 44.0588 121.317 44.0588Z" fill="#E25565"/>
<path d="M119.629 21.2818C118.892 21.0355 118.239 20.6167 117.506 20.3259C117.787 21.1089 118.239 22.1213 118.989 22.5589C118.27 23.1912 116.938 23.3234 116.105 23.6172C115.332 23.8913 116.951 24.3973 117.788 24.3109C117.788 24.7583 117.488 26.0809 117.488 26.5318" fill="black"/>
<path d="M150.955 30.3658C151.822 30.852 153.059 31.4407 154.048 31.5107C153.59 32.851 149.869 30.9225 149.957 33.0628C150.075 32.3258 150.407 30.5034 151.329 30.4925" fill="black"/>
<mask id="mask28_94_6287" style="mask-type:luminance" maskUnits="userSpaceOnUse" x="72" y="76" width="33" height="15">
<path d="M72.3035 76.5437H104.943V90.9921H72.3035V76.5437Z" fill="white"/>
</mask>
<g mask="url(#mask28_94_6287)">
<g opacity="0.449997">
<path d="M85.4996 90.992L104.421 90.8192L104.942 89.9492L86.7162 89.0863C86.7162 89.0863 82.7158 80.6458 76.1141 77.7065C72.2477 75.9909 72.3025 76.6807 72.3025 76.6807C72.3025 76.6807 79.5909 81.3281 82.0228 84.9566C84.4534 88.5784 85.4996 90.992 85.4996 90.992Z" fill="white"/>
</g>
</g>
<path d="M132.502 48.5335C130.465 48.8376 129.428 48.1979 129.431 48.1974C129.421 48.1712 129.263 48.0749 129.028 47.9249C128.039 47.2086 126.584 45.9741 126.135 45.1572C126.101 45.0943 126.072 45.031 126.045 44.9668C126.012 44.8791 125.98 44.7908 125.957 44.7009C125.788 44.0396 125.936 43.3321 126.064 42.9148C126.104 42.8284 126.147 42.7483 126.199 42.6874L126.13 42.7155C126.167 42.6086 126.195 42.5453 126.195 42.5453C126.195 42.5453 126.156 42.6163 126.096 42.7298L125.851 42.8281C125.75 42.7889 125.71 42.8443 125.621 42.8796C125.276 43.024 124.986 43.3262 124.673 43.5287C124.469 43.6785 124.242 43.6785 124.006 43.7013C123.427 43.7692 122.818 43.7808 122.233 43.7999C122.445 43.9802 122.983 44.0507 123.269 44.1612C123.55 44.2821 123.807 44.4388 124.085 44.5424L124.028 44.5838C124.028 44.5838 125.34 48.1656 129.082 49.2087C132.806 50.251 131.189 49.4481 131.189 49.4481C131.189 49.4481 131.091 49.394 130.933 49.3044C131.707 49.2315 132.442 48.9707 132.442 48.9707C132.442 48.9707 133.033 48.4545 132.502 48.5335Z" fill="black"/>
<mask id="mask29_94_6287" style="mask-type:luminance" maskUnits="userSpaceOnUse" x="121" y="44" width="4" height="4">
<path d="M121.209 44.582H124.585V47.8582H121.209V44.582Z" fill="white"/>
</mask>
<g mask="url(#mask29_94_6287)">
<g opacity="0.600006">
<path d="M122.39 47.8535C122.39 47.8535 123.861 47.9277 124.329 47.4808C124.798 47.0333 124.595 46.1511 123.923 45.741C123.251 45.3312 123.317 45.8418 123.264 46.1265C123.149 46.7354 122.643 46.9838 122.542 46.9586C122.44 46.9339 122.732 45.8039 122.529 45.2567C122.326 44.7099 121.603 44.238 121.35 44.9211C121.097 45.6045 121.058 47.3936 122.39 47.8535Z" fill="#DD2E5C"/>
</g>
</g>
<mask id="mask30_94_6287" style="mask-type:luminance" maskUnits="userSpaceOnUse" x="37" y="79" width="41" height="17">
<path d="M37.1919 79.4138H77.4972V95.4243H37.1919V79.4138Z" fill="white"/>
</mask>
<g mask="url(#mask30_94_6287)">
<g opacity="0.199997">
<path d="M37.1926 95.4244C37.1926 95.4244 38.4405 94.9785 40.8475 92.6572C43.254 90.3361 50.297 80.1582 61.0844 82.0332C71.8731 83.9078 78.7381 87.3001 77.3113 85.6038C75.8848 83.9078 71.5173 78.5507 61.5307 79.5331C51.5457 80.515 43.9672 80.6046 37.1926 95.4244Z" fill="black"/>
</g>
</g>
<mask id="mask31_94_6287" style="mask-type:luminance" maskUnits="userSpaceOnUse" x="146" y="79" width="42" height="17">
<path d="M146.95 79.4138H187.258V95.4243H146.95V79.4138Z" fill="white"/>
</mask>
<g mask="url(#mask31_94_6287)">
<g opacity="0.199997">
<path d="M146.951 95.4244C146.951 95.4244 148.2 94.9785 150.606 92.6572C153.014 90.3361 160.057 80.1582 170.845 82.0332C181.632 83.9078 188.498 87.3001 187.071 85.6038C185.644 83.9078 181.277 78.5507 171.291 79.5331C161.306 80.515 153.727 80.6046 146.951 95.4244Z" fill="black"/>
</g>
</g>
<path d="M120.905 46.3365C121.12 46.1353 121.372 45.9148 121.753 45.9407C121.634 46.1205 121.462 46.3442 121.533 46.5682C121.587 46.7408 121.972 47.0623 122.124 47.1622C122.244 47.241 122.617 47.4679 122.758 47.4673C122.997 47.4658 123.276 47.093 123.459 46.9573C123.508 47.268 123.674 47.8043 123.377 48.046C123.111 48.2613 122.596 48.1486 122.325 48.0487C121.5 47.7428 120.943 47.2502 120.893 46.3407" fill="white"/>
</g>
</g>
<defs>
<linearGradient id="paint0_linear_94_6287" x1="154.448" y1="104.677" x2="185.161" y2="104.677" gradientUnits="userSpaceOnUse">
<stop stop-color="#999594"/>
<stop offset="0.016854" stop-color="#999594"/>
<stop offset="0.460674" stop-color="#ECEBEB"/>
<stop offset="1" stop-color="#CDCCCB"/>
</linearGradient>
<linearGradient id="paint1_linear_94_6287" x1="154.419" y1="103.959" x2="185.133" y2="103.959" gradientUnits="userSpaceOnUse">
<stop stop-color="#999594"/>
<stop offset="0.016854" stop-color="#999594"/>
<stop offset="0.460674" stop-color="#ECEBEB"/>
<stop offset="1" stop-color="#CDCCCB"/>
</linearGradient>
<linearGradient id="paint2_linear_94_6287" x1="44.7816" y1="103.959" x2="75.493" y2="103.959" gradientUnits="userSpaceOnUse">
<stop stop-color="#999594"/>
<stop offset="0.016854" stop-color="#999594"/>
<stop offset="0.460674" stop-color="#ECEBEB"/>
<stop offset="1" stop-color="#CDCCCB"/>
</linearGradient>
<radialGradient id="paint3_radial_94_6287" cx="0" cy="0" r="1" gradientUnits="userSpaceOnUse" gradientTransform="translate(126.537 27.4068) rotate(-146.831) scale(1.61755 1.61306)">
<stop stop-color="white"/>
<stop offset="0.509949"/>
<stop offset="1"/>
</radialGradient>
<radialGradient id="paint4_radial_94_6287" cx="0" cy="0" r="1" gradientUnits="userSpaceOnUse" gradientTransform="translate(127.624 27.4622) rotate(33.1694) scale(1.83045 1.82537)">
<stop stop-color="white"/>
<stop offset="0.509949"/>
<stop offset="1"/>
</radialGradient>
<radialGradient id="paint5_radial_94_6287" cx="0" cy="0" r="1" gradientUnits="userSpaceOnUse" gradientTransform="translate(139.378 35.065) rotate(33.1693) scale(1.61505 1.61057)">
<stop stop-color="white"/>
<stop offset="0.509949"/>
<stop offset="1"/>
</radialGradient>
<linearGradient id="paint6_linear_94_6287" x1="75.3647" y1="101.256" x2="45.1235" y2="106.579" gradientUnits="userSpaceOnUse">
<stop stop-color="#A5A1A0"/>
<stop offset="0.016854" stop-color="#A5A1A0"/>
<stop offset="1" stop-color="#CDCCCB"/>
</linearGradient>
<linearGradient id="paint7_linear_94_6287" x1="184.933" y1="101.251" x2="154.69" y2="106.574" gradientUnits="userSpaceOnUse">
<stop stop-color="#9B9897"/>
<stop offset="0.016854" stop-color="#9B9897"/>
<stop offset="1" stop-color="#CDCCCB"/>
</linearGradient>
<clipPath id="clip0_94_6287">
<rect width="244" height="134" fill="white"/>
</clipPath>
<clipPath id="clip1_94_6287">
<rect width="244" height="134" fill="white"/>
</clipPath>
</defs>
</svg>
